<svg width="213" height="258" viewBox="0 0 213 258" fill="none" xmlns="http://www.w3.org/2000/svg">
<mask id="mask0_77_308" style="mask-type:alpha" maskUnits="userSpaceOnUse" x="0" y="10" width="213" height="198">
<g style="mix-blend-mode:overlay">
<rect x="0.769531" y="205.654" width="211.867" height="1.8764" rx="0.9382" fill="#D9D9D9" fill-opacity="0.7"/>
<rect x="0.769531" y="200.775" width="211.867" height="1.8764" rx="0.9382" fill="#D9D9D9" fill-opacity="0.7"/>
<rect x="0.769531" y="195.896" width="211.867" height="1.8764" rx="0.9382" fill="#D9D9D9" fill-opacity="0.7"/>
<rect x="0.769531" y="191.018" width="211.867" height="1.8764" rx="0.9382" fill="#D9D9D9" fill-opacity="0.7"/>
<rect x="0.769531" y="186.139" width="211.867" height="1.8764" rx="0.9382" fill="#D9D9D9" fill-opacity="0.7"/>
<rect x="0.769531" y="181.26" width="211.867" height="1.8764" rx="0.9382" fill="#D9D9D9" fill-opacity="0.7"/>
<rect x="0.769531" y="176.382" width="211.867" height="1.8764" rx="0.9382" fill="#D9D9D9" fill-opacity="0.7"/>
<rect x="0.769531" y="171.503" width="211.867" height="1.8764" rx="0.9382" fill="#D9D9D9" fill-opacity="0.7"/>
<rect x="0.769531" y="166.625" width="211.867" height="1.8764" rx="0.9382" fill="#D9D9D9" fill-opacity="0.7"/>
<rect x="0.769531" y="161.746" width="211.867" height="1.8764" rx="0.9382" fill="#D9D9D9" fill-opacity="0.7"/>
<rect x="0.769531" y="156.867" width="211.867" height="1.8764" rx="0.9382" fill="#D9D9D9" fill-opacity="0.7"/>
<rect x="0.769531" y="151.989" width="211.867" height="1.8764" rx="0.9382" fill="#D9D9D9" fill-opacity="0.7"/>
<rect x="0.769531" y="147.11" width="211.867" height="1.8764" rx="0.9382" fill="#D9D9D9" fill-opacity="0.7"/>
<rect x="0.769531" y="142.231" width="211.867" height="1.8764" rx="0.9382" fill="#D9D9D9" fill-opacity="0.7"/>
<rect x="0.769531" y="137.353" width="211.867" height="1.8764" rx="0.9382" fill="#D9D9D9" fill-opacity="0.7"/>
<rect x="0.769531" y="132.474" width="211.867" height="1.8764" rx="0.9382" fill="#D9D9D9" fill-opacity="0.7"/>
<rect x="0.769531" y="127.595" width="211.867" height="1.8764" rx="0.9382" fill="#D9D9D9" fill-opacity="0.7"/>
<rect x="0.769531" y="122.717" width="211.867" height="1.8764" rx="0.9382" fill="#D9D9D9" fill-opacity="0.7"/>
<rect x="0.769531" y="117.838" width="211.867" height="1.8764" rx="0.9382" fill="#D9D9D9" fill-opacity="0.7"/>
<rect x="0.769531" y="112.959" width="211.867" height="1.8764" rx="0.9382" fill="#D9D9D9" fill-opacity="0.7"/>
<rect x="0.769531" y="108.081" width="211.867" height="1.8764" rx="0.9382" fill="#D9D9D9" fill-opacity="0.7"/>
<rect x="0.769531" y="103.202" width="211.867" height="1.8764" rx="0.9382" fill="#D9D9D9" fill-opacity="0.7"/>
<rect x="0.769531" y="98.3235" width="211.867" height="1.8764" rx="0.9382" fill="#D9D9D9" fill-opacity="0.7"/>
<rect x="0.769531" y="93.4448" width="211.867" height="1.8764" rx="0.9382" fill="#D9D9D9" fill-opacity="0.7"/>
<rect x="0.769531" y="88.5662" width="211.867" height="1.8764" rx="0.9382" fill="#D9D9D9" fill-opacity="0.7"/>
<rect x="0.769531" y="83.6875" width="211.867" height="1.8764" rx="0.9382" fill="#D9D9D9" fill-opacity="0.7"/>
<rect x="0.769531" y="78.8088" width="211.867" height="1.8764" rx="0.9382" fill="#D9D9D9" fill-opacity="0.7"/>
<rect x="0.769531" y="73.9303" width="211.867" height="1.8764" rx="0.9382" fill="#D9D9D9" fill-opacity="0.7"/>
<rect x="0.769531" y="69.0515" width="211.867" height="1.8764" rx="0.9382" fill="#D9D9D9" fill-opacity="0.7"/>
<rect x="0.769531" y="64.173" width="211.867" height="1.8764" rx="0.9382" fill="#D9D9D9" fill-opacity="0.7"/>
<rect x="0.769531" y="59.2943" width="211.867" height="1.8764" rx="0.9382" fill="#D9D9D9" fill-opacity="0.7"/>
<rect x="0.769531" y="54.4155" width="211.867" height="1.8764" rx="0.9382" fill="#D9D9D9" fill-opacity="0.7"/>
<rect x="0.769531" y="49.5371" width="211.867" height="1.8764" rx="0.9382" fill="#D9D9D9" fill-opacity="0.7"/>
<rect x="0.769531" y="44.6583" width="211.867" height="1.8764" rx="0.9382" fill="#D9D9D9" fill-opacity="0.7"/>
<rect x="0.769531" y="39.7798" width="211.867" height="1.8764" rx="0.9382" fill="#D9D9D9" fill-opacity="0.7"/>
<rect x="0.769531" y="34.901" width="211.867" height="1.8764" rx="0.9382" fill="#D9D9D9" fill-opacity="0.7"/>
<rect x="0.769531" y="30.0223" width="211.867" height="1.8764" rx="0.9382" fill="#D9D9D9" fill-opacity="0.7"/>
<rect x="0.769531" y="25.1438" width="211.867" height="1.8764" rx="0.9382" fill="#D9D9D9" fill-opacity="0.7"/>
<rect x="0.769531" y="20.2653" width="211.867" height="1.8764" rx="0.9382" fill="#D9D9D9" fill-opacity="0.7"/>
<rect x="0.769531" y="15.3865" width="211.867" height="1.8764" rx="0.9382" fill="#D9D9D9" fill-opacity="0.7"/>
<rect x="0.769531" y="10.5078" width="211.867" height="1.8764" rx="0.9382" fill="#D9D9D9" fill-opacity="0.7"/>
</g>
</mask>
<g mask="url(#mask0_77_308)">
<g filter="url(#filter0_iii_77_308)">
<path d="M186.249 135.529C186.124 152.917 178.243 165.614 162.607 173.62C146.97 181.626 126.58 185.629 101.436 185.629C73.0399 185.629 51.3362 180.813 36.325 171.181C21.3138 161.424 13.8082 146.788 13.8082 127.273H57.716C57.716 136.905 61.9691 143.973 70.4755 148.476C78.9818 152.855 89.302 154.981 101.436 154.856C112.069 155.106 121.076 153.668 128.456 150.54C135.962 147.413 139.777 142.409 139.902 135.529C139.777 132.027 138.839 129.4 137.088 127.648C135.336 125.772 132.459 124.521 128.456 123.896C124.453 123.145 118.824 122.77 111.569 122.77H76.8553V95.7496H111.569C121.451 95.7496 128.519 94.4986 132.772 91.9968C137.025 89.4949 139.152 86.4301 139.152 82.8024C139.152 78.174 135.462 74.7964 128.081 72.6698C120.826 70.4182 111.944 69.2298 101.436 69.1047C89.302 69.1047 78.9818 70.4182 70.4755 73.0451C61.9691 75.547 57.716 79.4874 57.716 84.8665H13.8082C13.8082 66.853 22.8775 54.6564 41.016 48.2766C59.2796 41.7718 79.4197 38.5194 101.436 38.5194C114.821 38.5194 127.268 39.395 138.776 41.1463C150.41 42.7725 160.605 46.6504 169.362 52.78C178.118 58.9096 182.497 67.9788 182.497 79.9878C182.497 92.247 174.991 100.628 159.98 105.132C176.242 110.01 184.998 120.018 186.249 135.154V135.529Z" fill="#FF5C17"/>
</g>
</g>
<g filter="url(#filter1_i_77_308)">
<path d="M187.044 134.028L192.298 134.066L192.298 134.047V134.028H187.044ZM163.402 172.119L161.007 167.443L163.402 172.119ZM37.1199 169.68L34.2566 174.085L34.2695 174.093L34.2825 174.102L37.1199 169.68ZM14.6031 125.772V120.518H9.34919V125.772H14.6031ZM58.5109 125.772H63.7648V120.518H58.5109V125.772ZM71.2704 146.975L68.8122 151.619L68.839 151.633L68.866 151.647L71.2704 146.975ZM102.231 153.355L102.355 148.103L102.266 148.101L102.177 148.101L102.231 153.355ZM129.251 149.039L127.23 144.19L127.216 144.196L127.201 144.202L129.251 149.039ZM140.697 134.028L145.95 134.124L145.953 133.982L145.948 133.841L140.697 134.028ZM137.883 126.147L134.042 129.732L134.104 129.798L134.168 129.862L137.883 126.147ZM129.251 122.394L128.283 127.558L128.361 127.573L128.44 127.585L129.251 122.394ZM77.6502 121.269H72.3963V126.523H77.6502V121.269ZM77.6502 94.2485V88.9946H72.3963V94.2485H77.6502ZM133.567 90.4957L136.231 95.0242H136.231L133.567 90.4957ZM128.876 71.1687L127.319 76.1866L127.37 76.2025L127.421 76.2173L128.876 71.1687ZM102.231 67.6036L102.294 62.35L102.262 62.3497H102.231V67.6036ZM71.2704 71.544L72.7529 76.5845L72.7869 76.5745L72.8207 76.564L71.2704 71.544ZM58.5109 83.3653V88.6193H63.7648V83.3653H58.5109ZM14.6031 83.3653H9.34919V88.6193H14.6031V83.3653ZM41.8109 46.7755L43.5542 51.7318L43.5639 51.7284L43.5737 51.7249L41.8109 46.7755ZM139.571 39.6452L138.781 44.8393L138.812 44.8441L138.844 44.8485L139.571 39.6452ZM170.157 51.2789L173.17 46.9747V46.9747L170.157 51.2789ZM160.775 103.63L159.265 98.5981L142.491 103.63L159.265 108.663L160.775 103.63ZM187.044 133.653H192.298V133.436L192.28 133.22L187.044 133.653ZM181.791 133.99C181.734 141.879 179.928 148.42 176.576 153.821C173.222 159.225 168.126 163.798 161.007 167.443L165.796 176.796C174.314 172.435 180.977 166.656 185.504 159.363C190.032 152.067 192.23 143.566 192.298 134.066L181.791 133.99ZM161.007 167.443C146.362 174.941 126.877 178.874 102.231 178.874V189.382C127.872 189.382 149.169 185.309 165.796 176.796L161.007 167.443ZM102.231 178.874C74.2972 178.874 53.7581 174.113 39.9573 165.258L34.2825 174.102C50.5042 184.511 73.3725 189.382 102.231 189.382V178.874ZM39.9832 165.275C26.6158 156.586 19.857 143.698 19.857 125.772H9.34919C9.34919 146.875 17.6016 163.259 34.2566 174.085L39.9832 165.275ZM14.6031 131.026H58.5109V120.518H14.6031V131.026ZM53.257 125.772C53.257 131.38 54.5029 136.526 57.1991 141.006C59.8954 145.487 63.8574 148.996 68.8122 151.619L73.7287 142.332C70.1771 140.452 67.7593 138.175 66.2025 135.588C64.6454 133.001 63.7648 129.796 63.7648 125.772H53.257ZM68.866 151.647C78.3092 156.507 89.5204 158.74 102.285 158.609L102.177 148.101C90.6736 148.22 81.2443 146.2 73.6748 142.304L68.866 151.647ZM102.107 158.608C113.254 158.87 123.048 157.374 131.301 153.877L127.201 144.202C120.693 146.96 112.474 148.341 102.355 148.103L102.107 158.608ZM131.272 153.889C135.634 152.072 139.311 149.548 141.92 146.127C144.57 142.652 145.869 138.572 145.95 134.124L135.444 133.933C135.4 136.365 134.73 138.227 133.564 139.755C132.357 141.338 130.374 142.88 127.23 144.19L131.272 153.889ZM145.948 133.841C145.795 129.562 144.617 125.451 141.598 122.432L134.168 129.862C134.651 130.346 135.349 131.49 135.447 134.216L145.948 133.841ZM141.724 122.562C138.824 119.455 134.598 117.912 130.062 117.204L128.44 127.585C131.911 128.128 133.439 129.086 134.042 129.732L141.724 122.562ZM130.219 117.231C125.742 116.391 119.734 116.015 112.364 116.015V126.523C119.504 126.523 124.754 126.897 128.283 127.558L130.219 117.231ZM112.364 116.015H77.6502V126.523H112.364V116.015ZM82.9041 121.269V94.2485H72.3963V121.269H82.9041ZM77.6502 99.5024H112.364V88.9946H77.6502V99.5024ZM112.364 99.5024C122.416 99.5024 130.698 98.2788 136.231 95.0242L130.903 85.9671C127.93 87.7162 122.076 88.9946 112.364 88.9946V99.5024ZM136.231 95.0242C141.438 91.9613 145.201 87.4391 145.201 81.3013H134.693C134.693 82.4189 134.202 84.0263 130.903 85.9671L136.231 95.0242ZM145.201 81.3013C145.201 77.3846 143.56 74.0151 140.726 71.4212C138.049 68.9704 134.421 67.299 130.331 66.1202L127.421 76.2173C130.711 77.1651 132.619 78.2457 133.632 79.1725C134.488 79.9561 134.693 80.5896 134.693 81.3013H145.201ZM130.433 66.1509C122.548 63.7038 113.129 62.479 102.294 62.35L102.168 72.8571C112.348 72.9783 120.693 74.1303 127.319 76.1866L130.433 66.1509ZM102.231 62.3497C89.7482 62.3497 78.8734 63.6973 69.7201 66.524L72.8207 76.564C80.6801 74.1369 90.4458 72.8575 102.231 72.8575V62.3497ZM69.7879 66.5036C65.1306 67.8734 61.0837 69.7852 58.1301 72.5217C55.0238 75.3996 53.257 79.09 53.257 83.3653H63.7648C63.7648 82.2616 64.1246 81.2924 65.2715 80.2298C66.571 79.0259 68.9039 77.7165 72.7529 76.5845L69.7879 66.5036ZM58.5109 78.1114H14.6031V88.6193H58.5109V78.1114ZM19.857 83.3653C19.857 75.2723 21.8787 68.8758 25.6211 63.8428C29.3842 58.7822 35.2107 54.6664 43.5542 51.7318L40.0677 41.8193C30.2726 45.2644 22.4952 50.4369 17.189 57.5728C11.8622 64.7364 9.34919 73.4449 9.34919 83.3653H19.857ZM43.5737 51.7249C61.2004 45.4469 80.7348 42.2722 102.231 42.2722V31.7643C79.6944 31.7643 58.9488 35.0944 40.0481 41.8262L43.5737 51.7249ZM102.231 42.2722C115.39 42.2722 127.569 43.1332 138.781 44.8393L140.362 34.4511C128.556 32.6546 115.842 31.7643 102.231 31.7643V42.2722ZM138.844 44.8485C149.738 46.3714 159.133 49.9753 167.144 55.5831L173.17 46.9747C163.668 40.3233 152.672 36.1715 140.299 34.4419L138.844 44.8485ZM167.144 55.5831C174.306 60.5964 178.038 67.9462 178.038 78.4867H188.545C188.545 65.0094 183.521 54.2206 173.17 46.9747L167.144 55.5831ZM178.038 78.4867C178.038 83.4484 176.558 87.3246 173.748 90.462C170.847 93.702 166.192 96.52 159.265 98.5981L162.284 108.663C170.368 106.238 176.972 102.613 181.576 97.472C186.272 92.2282 188.545 85.7841 188.545 78.4867H178.038ZM159.265 108.663C166.709 110.896 172.015 114.175 175.585 118.255C179.12 122.295 181.262 127.472 181.808 134.086L192.28 133.22C191.576 124.698 188.714 117.302 183.493 111.335C178.306 105.408 171.103 101.244 162.284 98.5981L159.265 108.663ZM181.79 133.653V134.028H192.298V133.653H181.79Z" fill="#FF5C17"/>
</g>
<defs>
<filter id="filter0_iii_77_308" x="7.42883" y="32.1396" width="188.202" height="162.872" filterUnits="userSpaceOnUse" color-interpolation-filters="sRGB">
<feFlood flood-opacity="0" result="BackgroundImageFix"/>
<feBlend mode="normal" in="SourceGraphic" in2="BackgroundImageFix" result="shape"/>
<feColorMatrix in="SourceAlpha" type="matrix" values="0 0 0 0 0 0 0 0 0 0 0 0 0 0 0 0 0 0 127 0" result="hardAlpha"/>
<feOffset dx="-6.37976" dy="-6.37976"/>
<feGaussianBlur stdDeviation="6.5674"/>
<feComposite in2="hardAlpha" operator="arithmetic" k2="-1" k3="1"/>
<feColorMatrix type="matrix" values="0 0 0 0 1 0 0 0 0 1 0 0 0 0 1 0 0 0 0.3 0"/>
<feBlend mode="normal" in2="shape" result="effect1_innerShadow_77_308"/>
<feColorMatrix in="SourceAlpha" type="matrix" values="0 0 0 0 0 0 0 0 0 0 0 0 0 0 0 0 0 0 127 0" result="hardAlpha"/>
<feOffset dx="1.8764" dy="1.8764"/>
<feGaussianBlur stdDeviation="3.7528"/>
<feComposite in2="hardAlpha" operator="arithmetic" k2="-1" k3="1"/>
<feColorMatrix type="matrix" values="0 0 0 0 0.00784314 0 0 0 0 0 0 0 0 0 0.396078 0 0 0 0.5 0"/>
<feBlend mode="normal" in2="effect1_innerShadow_77_308" result="effect2_innerShadow_77_308"/>
<feColorMatrix in="SourceAlpha" type="matrix" values="0 0 0 0 0 0 0 0 0 0 0 0 0 0 0 0 0 0 127 0" result="hardAlpha"/>
<feOffset dx="9.382" dy="9.382"/>
<feGaussianBlur stdDeviation="8.06852"/>
<feComposite in2="hardAlpha" operator="arithmetic" k2="-1" k3="1"/>
<feColorMatrix type="matrix" values="0 0 0 0 0.00784314 0 0 0 0 0 0 0 0 0 0.396078 0 0 0 0.5 0"/>
<feBlend mode="normal" in2="effect2_innerShadow_77_308" result="effect3_innerShadow_77_308"/>
</filter>
<filter id="filter1_i_77_308" x="14.6035" y="37.0183" width="173.191" height="147.86" filterUnits="userSpaceOnUse" color-interpolation-filters="sRGB">
<feFlood flood-opacity="0" result="BackgroundImageFix"/>
<feBlend mode="normal" in="SourceGraphic" in2="BackgroundImageFix" result="shape"/>
<feColorMatrix in="SourceAlpha" type="matrix" values="0 0 0 0 0 0 0 0 0 0 0 0 0 0 0 0 0 0 127 0" result="hardAlpha"/>
<feOffset dx="0.75056" dy="0.75056"/>
<feGaussianBlur stdDeviation="0.75056"/>
<feComposite in2="hardAlpha" operator="arithmetic" k2="-1" k3="1"/>
<feColorMatrix type="matrix" values="0 0 0 0 1 0 0 0 0 1 0 0 0 0 1 0 0 0 0.9 0"/>
<feBlend mode="normal" in2="shape" result="effect1_innerShadow_77_308"/>
</filter>
</defs>
</svg>
