<svg width="207" height="203" viewBox="0 0 207 203" fill="none" xmlns="http://www.w3.org/2000/svg">
<mask id="mask0_295_1215" style="mask-type:alpha" maskUnits="userSpaceOnUse" x="0" y="10" width="207" height="193">
<g style="mix-blend-mode:overlay">
<rect y="200.27" width="206.321" height="1.82728" rx="0.913639" fill="#D9D9D9" fill-opacity="0.7"/>
<rect y="195.519" width="206.321" height="1.82728" rx="0.913639" fill="#D9D9D9" fill-opacity="0.7"/>
<rect y="190.768" width="206.321" height="1.82728" rx="0.913639" fill="#D9D9D9" fill-opacity="0.7"/>
<rect y="186.017" width="206.321" height="1.82728" rx="0.913639" fill="#D9D9D9" fill-opacity="0.7"/>
<rect y="181.266" width="206.321" height="1.82728" rx="0.913639" fill="#D9D9D9" fill-opacity="0.7"/>
<rect y="176.515" width="206.321" height="1.82728" rx="0.913639" fill="#D9D9D9" fill-opacity="0.7"/>
<rect y="171.764" width="206.321" height="1.82728" rx="0.913639" fill="#D9D9D9" fill-opacity="0.7"/>
<rect y="167.013" width="206.321" height="1.82728" rx="0.913639" fill="#D9D9D9" fill-opacity="0.7"/>
<rect y="162.262" width="206.321" height="1.82728" rx="0.913639" fill="#D9D9D9" fill-opacity="0.7"/>
<rect y="157.511" width="206.321" height="1.82728" rx="0.913639" fill="#D9D9D9" fill-opacity="0.7"/>
<rect y="152.76" width="206.321" height="1.82728" rx="0.913639" fill="#D9D9D9" fill-opacity="0.7"/>
<rect y="148.01" width="206.321" height="1.82728" rx="0.913639" fill="#D9D9D9" fill-opacity="0.7"/>
<rect y="143.258" width="206.321" height="1.82728" rx="0.913639" fill="#D9D9D9" fill-opacity="0.7"/>
<rect y="138.508" width="206.321" height="1.82728" rx="0.913639" fill="#D9D9D9" fill-opacity="0.7"/>
<rect y="133.757" width="206.321" height="1.82728" rx="0.913639" fill="#D9D9D9" fill-opacity="0.7"/>
<rect y="129.006" width="206.321" height="1.82728" rx="0.913639" fill="#D9D9D9" fill-opacity="0.7"/>
<rect y="124.255" width="206.321" height="1.82728" rx="0.913639" fill="#D9D9D9" fill-opacity="0.7"/>
<rect y="119.504" width="206.321" height="1.82728" rx="0.913639" fill="#D9D9D9" fill-opacity="0.7"/>
<rect y="114.753" width="206.321" height="1.82728" rx="0.913639" fill="#D9D9D9" fill-opacity="0.7"/>
<rect y="110.002" width="206.321" height="1.82728" rx="0.913639" fill="#D9D9D9" fill-opacity="0.7"/>
<rect y="105.251" width="206.321" height="1.82728" rx="0.913639" fill="#D9D9D9" fill-opacity="0.7"/>
<rect y="100.5" width="206.321" height="1.82728" rx="0.913639" fill="#D9D9D9" fill-opacity="0.7"/>
<rect y="95.7495" width="206.321" height="1.82728" rx="0.913639" fill="#D9D9D9" fill-opacity="0.7"/>
<rect y="90.9985" width="206.321" height="1.82728" rx="0.913639" fill="#D9D9D9" fill-opacity="0.7"/>
<rect y="86.2476" width="206.321" height="1.82728" rx="0.913639" fill="#D9D9D9" fill-opacity="0.7"/>
<rect y="81.4966" width="206.321" height="1.82728" rx="0.913639" fill="#D9D9D9" fill-opacity="0.7"/>
<rect y="76.7456" width="206.321" height="1.82728" rx="0.913639" fill="#D9D9D9" fill-opacity="0.7"/>
<rect y="71.9949" width="206.321" height="1.82728" rx="0.913639" fill="#D9D9D9" fill-opacity="0.7"/>
<rect y="67.2437" width="206.321" height="1.82728" rx="0.913639" fill="#D9D9D9" fill-opacity="0.7"/>
<rect y="62.4929" width="206.321" height="1.82728" rx="0.913639" fill="#D9D9D9" fill-opacity="0.7"/>
<rect y="57.7419" width="206.321" height="1.82728" rx="0.913639" fill="#D9D9D9" fill-opacity="0.7"/>
<rect y="52.991" width="206.321" height="1.82728" rx="0.913639" fill="#D9D9D9" fill-opacity="0.7"/>
<rect y="48.2402" width="206.321" height="1.82728" rx="0.913639" fill="#D9D9D9" fill-opacity="0.7"/>
<rect y="43.4893" width="206.321" height="1.82728" rx="0.913639" fill="#D9D9D9" fill-opacity="0.7"/>
<rect y="38.7384" width="206.321" height="1.82728" rx="0.913639" fill="#D9D9D9" fill-opacity="0.7"/>
<rect y="33.9873" width="206.321" height="1.82728" rx="0.913639" fill="#D9D9D9" fill-opacity="0.7"/>
<rect y="29.2363" width="206.321" height="1.82728" rx="0.913639" fill="#D9D9D9" fill-opacity="0.7"/>
<rect y="24.4856" width="206.321" height="1.82728" rx="0.913639" fill="#D9D9D9" fill-opacity="0.7"/>
<rect y="19.7346" width="206.321" height="1.82728" rx="0.913639" fill="#D9D9D9" fill-opacity="0.7"/>
<rect y="14.9836" width="206.321" height="1.82728" rx="0.913639" fill="#D9D9D9" fill-opacity="0.7"/>
<rect y="10.2328" width="206.321" height="1.82728" rx="0.913639" fill="#D9D9D9" fill-opacity="0.7"/>
</g>
</mask>
<g mask="url(#mask0_295_1215)">
<g filter="url(#filter0_iii_295_1215)">
<path d="M69.3289 32.9018V139.462H35.9209V70.3418H11.8729V51.0458C21.3769 51.0458 28.4329 49.9418 33.0409 47.7338C37.7449 45.5258 40.6249 43.1738 41.6809 40.6778C42.7369 38.0858 43.2649 35.4938 43.2649 32.9018H69.3289Z" fill="#FF5C17"/>
</g>
</g>
<g filter="url(#filter1_i_295_1215)">
<path d="M70.1023 31.44H75.2187V26.3236H70.1023V31.44ZM70.1023 138V143.116H75.2187V138H70.1023ZM36.6943 138H31.578V143.116H36.6943V138ZM36.6943 68.88H41.8107V63.7636H36.6943V68.88ZM12.6463 68.88H7.52997V73.9964H12.6463V68.88ZM12.6463 49.584V44.4676H7.52997V49.584H12.6463ZM33.8143 46.272L31.6404 41.6405L31.6219 41.6491L31.6035 41.658L33.8143 46.272ZM42.4543 39.216L47.1664 41.2095L47.1797 41.178L47.1926 41.1464L42.4543 39.216ZM44.0383 31.44V26.3236H38.922V31.44H44.0383ZM64.986 31.44V138H75.2187V31.44H64.986ZM70.1023 132.884H36.6943V143.116H70.1023V132.884ZM41.8107 138V68.88H31.578V138H41.8107ZM36.6943 63.7636H12.6463V73.9964H36.6943V63.7636ZM17.7627 68.88V49.584H7.52997V68.88H17.7627ZM12.6463 54.7004C22.3671 54.7004 30.3617 53.5998 36.0252 50.886L31.6035 41.658C28.051 43.3602 21.9336 44.4676 12.6463 44.4676V54.7004ZM35.9883 50.9035C40.9199 48.5887 45.3315 45.5464 47.1664 41.2095L37.7423 37.2225C37.4651 37.8776 36.1168 39.5393 31.6404 41.6405L35.9883 50.9035ZM47.1926 41.1464C48.4782 37.9908 49.1547 34.7451 49.1547 31.44H38.922C38.922 33.3189 38.5425 35.2572 37.7161 37.2856L47.1926 41.1464ZM44.0383 36.5564H70.1023V26.3236H44.0383V36.5564Z" fill="#FF5C17"/>
</g>
<defs>
<filter id="filter0_iii_295_1215" x="5.6603" y="26.689" width="72.8052" height="121.909" filterUnits="userSpaceOnUse" color-interpolation-filters="sRGB">
<feFlood flood-opacity="0" result="BackgroundImageFix"/>
<feBlend mode="normal" in="SourceGraphic" in2="BackgroundImageFix" result="shape"/>
<feColorMatrix in="SourceAlpha" type="matrix" values="0 0 0 0 0 0 0 0 0 0 0 0 0 0 0 0 0 0 127 0" result="hardAlpha"/>
<feOffset dx="-6.21274" dy="-6.21274"/>
<feGaussianBlur stdDeviation="6.39547"/>
<feComposite in2="hardAlpha" operator="arithmetic" k2="-1" k3="1"/>
<feColorMatrix type="matrix" values="0 0 0 0 1 0 0 0 0 1 0 0 0 0 1 0 0 0 0.3 0"/>
<feBlend mode="normal" in2="shape" result="effect1_innerShadow_295_1215"/>
<feColorMatrix in="SourceAlpha" type="matrix" values="0 0 0 0 0 0 0 0 0 0 0 0 0 0 0 0 0 0 127 0" result="hardAlpha"/>
<feOffset dx="1.82728" dy="1.82728"/>
<feGaussianBlur stdDeviation="3.65456"/>
<feComposite in2="hardAlpha" operator="arithmetic" k2="-1" k3="1"/>
<feColorMatrix type="matrix" values="0 0 0 0 0.00784314 0 0 0 0 0 0 0 0 0 0.396078 0 0 0 0.5 0"/>
<feBlend mode="normal" in2="effect1_innerShadow_295_1215" result="effect2_innerShadow_295_1215"/>
<feColorMatrix in="SourceAlpha" type="matrix" values="0 0 0 0 0 0 0 0 0 0 0 0 0 0 0 0 0 0 127 0" result="hardAlpha"/>
<feOffset dx="9.13639" dy="9.13639"/>
<feGaussianBlur stdDeviation="7.8573"/>
<feComposite in2="hardAlpha" operator="arithmetic" k2="-1" k3="1"/>
<feColorMatrix type="matrix" values="0 0 0 0 0.00784314 0 0 0 0 0 0 0 0 0 0.396078 0 0 0 0.5 0"/>
<feBlend mode="normal" in2="effect2_innerShadow_295_1215" result="effect3_innerShadow_295_1215"/>
</filter>
<filter id="filter1_i_295_1215" x="12.6465" y="31.4399" width="58.187" height="107.291" filterUnits="userSpaceOnUse" color-interpolation-filters="sRGB">
<feFlood flood-opacity="0" result="BackgroundImageFix"/>
<feBlend mode="normal" in="SourceGraphic" in2="BackgroundImageFix" result="shape"/>
<feColorMatrix in="SourceAlpha" type="matrix" values="0 0 0 0 0 0 0 0 0 0 0 0 0 0 0 0 0 0 127 0" result="hardAlpha"/>
<feOffset dx="0.730911" dy="0.730911"/>
<feGaussianBlur stdDeviation="0.730911"/>
<feComposite in2="hardAlpha" operator="arithmetic" k2="-1" k3="1"/>
<feColorMatrix type="matrix" values="0 0 0 0 1 0 0 0 0 1 0 0 0 0 1 0 0 0 0.9 0"/>
<feBlend mode="normal" in2="shape" result="effect1_innerShadow_295_1215"/>
</filter>
</defs>
</svg>
