<svg width="144" height="199" viewBox="0 0 144 199" fill="none" xmlns="http://www.w3.org/2000/svg">
<mask id="mask0_295_1061" style="mask-type:alpha" maskUnits="userSpaceOnUse" x="0" y="8" width="144" height="142">
<g style="mix-blend-mode:overlay">
<rect y="148.321" width="143.684" height="1.3472" rx="0.673599" fill="#D9D9D9" fill-opacity="0.7"/>
<rect y="144.818" width="143.684" height="1.3472" rx="0.673599" fill="#D9D9D9" fill-opacity="0.7"/>
<rect y="141.316" width="143.684" height="1.3472" rx="0.673599" fill="#D9D9D9" fill-opacity="0.7"/>
<rect y="137.813" width="143.684" height="1.3472" rx="0.673599" fill="#D9D9D9" fill-opacity="0.7"/>
<rect y="134.31" width="143.684" height="1.3472" rx="0.673599" fill="#D9D9D9" fill-opacity="0.7"/>
<rect y="130.808" width="143.684" height="1.3472" rx="0.673599" fill="#D9D9D9" fill-opacity="0.7"/>
<rect y="127.305" width="143.684" height="1.3472" rx="0.673599" fill="#D9D9D9" fill-opacity="0.7"/>
<rect y="123.802" width="143.684" height="1.3472" rx="0.673599" fill="#D9D9D9" fill-opacity="0.7"/>
<rect y="120.3" width="143.684" height="1.3472" rx="0.673599" fill="#D9D9D9" fill-opacity="0.7"/>
<rect y="116.797" width="143.684" height="1.3472" rx="0.673599" fill="#D9D9D9" fill-opacity="0.7"/>
<rect y="113.294" width="143.684" height="1.3472" rx="0.673599" fill="#D9D9D9" fill-opacity="0.7"/>
<rect y="109.791" width="143.684" height="1.3472" rx="0.673599" fill="#D9D9D9" fill-opacity="0.7"/>
<rect y="106.289" width="143.684" height="1.3472" rx="0.673599" fill="#D9D9D9" fill-opacity="0.7"/>
<rect y="102.786" width="143.684" height="1.3472" rx="0.673599" fill="#D9D9D9" fill-opacity="0.7"/>
<rect y="99.2832" width="143.684" height="1.3472" rx="0.673599" fill="#D9D9D9" fill-opacity="0.7"/>
<rect y="95.7805" width="143.684" height="1.3472" rx="0.673599" fill="#D9D9D9" fill-opacity="0.7"/>
<rect y="92.2776" width="143.684" height="1.3472" rx="0.673599" fill="#D9D9D9" fill-opacity="0.7"/>
<rect y="88.7749" width="143.684" height="1.3472" rx="0.673599" fill="#D9D9D9" fill-opacity="0.7"/>
<rect y="85.2722" width="143.684" height="1.3472" rx="0.673599" fill="#D9D9D9" fill-opacity="0.7"/>
<rect y="81.7695" width="143.684" height="1.3472" rx="0.673599" fill="#D9D9D9" fill-opacity="0.7"/>
<rect y="78.2668" width="143.684" height="1.3472" rx="0.673599" fill="#D9D9D9" fill-opacity="0.7"/>
<rect y="74.7639" width="143.684" height="1.3472" rx="0.673599" fill="#D9D9D9" fill-opacity="0.7"/>
<rect y="71.2615" width="143.684" height="1.3472" rx="0.673599" fill="#D9D9D9" fill-opacity="0.7"/>
<rect y="67.7588" width="143.684" height="1.3472" rx="0.673599" fill="#D9D9D9" fill-opacity="0.7"/>
<rect y="64.2559" width="143.684" height="1.3472" rx="0.673599" fill="#D9D9D9" fill-opacity="0.7"/>
<rect y="60.7532" width="143.684" height="1.3472" rx="0.673599" fill="#D9D9D9" fill-opacity="0.7"/>
<rect y="57.2505" width="143.684" height="1.3472" rx="0.673599" fill="#D9D9D9" fill-opacity="0.7"/>
<rect y="53.7478" width="143.684" height="1.3472" rx="0.673599" fill="#D9D9D9" fill-opacity="0.7"/>
<rect y="50.2451" width="143.684" height="1.3472" rx="0.673599" fill="#D9D9D9" fill-opacity="0.7"/>
<rect y="46.7424" width="143.684" height="1.3472" rx="0.673599" fill="#D9D9D9" fill-opacity="0.7"/>
<rect y="43.2397" width="143.684" height="1.3472" rx="0.673599" fill="#D9D9D9" fill-opacity="0.7"/>
<rect y="39.7368" width="143.684" height="1.3472" rx="0.673599" fill="#D9D9D9" fill-opacity="0.7"/>
<rect y="36.2344" width="143.684" height="1.3472" rx="0.673599" fill="#D9D9D9" fill-opacity="0.7"/>
<rect y="32.7314" width="143.684" height="1.3472" rx="0.673599" fill="#D9D9D9" fill-opacity="0.7"/>
<rect y="29.2288" width="143.684" height="1.3472" rx="0.673599" fill="#D9D9D9" fill-opacity="0.7"/>
<rect y="25.7261" width="143.684" height="1.3472" rx="0.673599" fill="#D9D9D9" fill-opacity="0.7"/>
<rect y="22.2234" width="143.684" height="1.3472" rx="0.673599" fill="#D9D9D9" fill-opacity="0.7"/>
<rect y="18.7205" width="143.684" height="1.3472" rx="0.673599" fill="#D9D9D9" fill-opacity="0.7"/>
<rect y="15.218" width="143.684" height="1.3472" rx="0.673599" fill="#D9D9D9" fill-opacity="0.7"/>
<rect y="11.7151" width="143.684" height="1.3472" rx="0.673599" fill="#D9D9D9" fill-opacity="0.7"/>
<rect y="8.2124" width="143.684" height="1.3472" rx="0.673599" fill="#D9D9D9" fill-opacity="0.7"/>
</g>
</mask>
<g mask="url(#mask0_295_1061)">
<g filter="url(#filter0_iii_295_1061)">
<path d="M118.557 97.9858H133.677V123.618H118.557V139.746H85.1491V123.618H9.40513V97.9858L85.1491 33.1858H118.557V97.9858ZM85.1491 61.9858L44.1091 97.9858H85.1491V61.9858Z" fill="#FF5C17"/>
</g>
</g>
<g filter="url(#filter1_i_295_1061)">
<path d="M119.096 96.908H115.324V100.68H119.096V96.908ZM134.216 96.908H137.988V93.1358H134.216V96.908ZM134.216 122.54V126.312H137.988V122.54H134.216ZM119.096 122.54V118.768H115.324V122.54H119.096ZM119.096 138.668V142.44H122.868V138.668H119.096ZM85.6882 138.668H81.916V142.44H85.6882V138.668ZM85.6882 122.54H89.4604V118.768H85.6882V122.54ZM9.9442 122.54H6.17204V126.312H9.9442V122.54ZM9.9442 96.908L7.492 94.0416L6.17204 95.1709V96.908H9.9442ZM85.6882 32.108V28.3358H84.2948L83.236 29.2416L85.6882 32.108ZM119.096 32.108H122.868V28.3358H119.096V32.108ZM85.6882 60.908H89.4604V52.5813L83.2007 58.0722L85.6882 60.908ZM44.6482 96.908L42.1607 94.0722L34.6277 100.68H44.6482V96.908ZM85.6882 96.908V100.68H89.4604V96.908H85.6882ZM119.096 100.68H134.216V93.1358H119.096V100.68ZM130.444 96.908V122.54H137.988V96.908H130.444ZM134.216 118.768H119.096V126.312H134.216V118.768ZM115.324 122.54V138.668H122.868V122.54H115.324ZM119.096 134.896H85.6882V142.44H119.096V134.896ZM89.4604 138.668V122.54H81.916V138.668H89.4604ZM85.6882 118.768H9.9442V126.312H85.6882V118.768ZM13.7164 122.54V96.908H6.17204V122.54H13.7164ZM12.3964 99.7743L88.1404 34.9743L83.236 29.2416L7.492 94.0416L12.3964 99.7743ZM85.6882 35.8801H119.096V28.3358H85.6882V35.8801ZM115.324 32.108V96.908H122.868V32.108H115.324ZM83.2007 58.0722L42.1607 94.0722L47.1357 99.7437L88.1757 63.7437L83.2007 58.0722ZM44.6482 100.68H85.6882V93.1358H44.6482V100.68ZM89.4604 96.908V60.908H81.916V96.908H89.4604Z" fill="#FF5C17"/>
</g>
<defs>
<filter id="filter0_iii_295_1061" x="4.8248" y="28.6053" width="135.588" height="117.877" filterUnits="userSpaceOnUse" color-interpolation-filters="sRGB">
<feFlood flood-opacity="0" result="BackgroundImageFix"/>
<feBlend mode="normal" in="SourceGraphic" in2="BackgroundImageFix" result="shape"/>
<feColorMatrix in="SourceAlpha" type="matrix" values="0 0 0 0 0 0 0 0 0 0 0 0 0 0 0 0 0 0 127 0" result="hardAlpha"/>
<feOffset dx="-4.58048" dy="-4.58048"/>
<feGaussianBlur stdDeviation="4.7152"/>
<feComposite in2="hardAlpha" operator="arithmetic" k2="-1" k3="1"/>
<feColorMatrix type="matrix" values="0 0 0 0 1 0 0 0 0 1 0 0 0 0 1 0 0 0 0.3 0"/>
<feBlend mode="normal" in2="shape" result="effect1_innerShadow_295_1061"/>
<feColorMatrix in="SourceAlpha" type="matrix" values="0 0 0 0 0 0 0 0 0 0 0 0 0 0 0 0 0 0 127 0" result="hardAlpha"/>
<feOffset dx="1.3472" dy="1.3472"/>
<feGaussianBlur stdDeviation="2.6944"/>
<feComposite in2="hardAlpha" operator="arithmetic" k2="-1" k3="1"/>
<feColorMatrix type="matrix" values="0 0 0 0 0.00784314 0 0 0 0 0 0 0 0 0 0.396078 0 0 0 0.5 0"/>
<feBlend mode="normal" in2="effect1_innerShadow_295_1061" result="effect2_innerShadow_295_1061"/>
<feColorMatrix in="SourceAlpha" type="matrix" values="0 0 0 0 0 0 0 0 0 0 0 0 0 0 0 0 0 0 127 0" result="hardAlpha"/>
<feOffset dx="6.736" dy="6.736"/>
<feGaussianBlur stdDeviation="5.79296"/>
<feComposite in2="hardAlpha" operator="arithmetic" k2="-1" k3="1"/>
<feColorMatrix type="matrix" values="0 0 0 0 0.00784314 0 0 0 0 0 0 0 0 0 0.396078 0 0 0 0.5 0"/>
<feBlend mode="normal" in2="effect2_innerShadow_295_1061" result="effect3_innerShadow_295_1061"/>
</filter>
<filter id="filter1_i_295_1061" x="9.94434" y="32.1079" width="124.81" height="107.099" filterUnits="userSpaceOnUse" color-interpolation-filters="sRGB">
<feFlood flood-opacity="0" result="BackgroundImageFix"/>
<feBlend mode="normal" in="SourceGraphic" in2="BackgroundImageFix" result="shape"/>
<feColorMatrix in="SourceAlpha" type="matrix" values="0 0 0 0 0 0 0 0 0 0 0 0 0 0 0 0 0 0 127 0" result="hardAlpha"/>
<feOffset dx="0.53888" dy="0.53888"/>
<feGaussianBlur stdDeviation="0.53888"/>
<feComposite in2="hardAlpha" operator="arithmetic" k2="-1" k3="1"/>
<feColorMatrix type="matrix" values="0 0 0 0 1 0 0 0 0 1 0 0 0 0 1 0 0 0 0.9 0"/>
<feBlend mode="normal" in2="shape" result="effect1_innerShadow_295_1061"/>
</filter>
</defs>
</svg>
