<svg width="152" height="199" viewBox="0 0 152 199" fill="none" xmlns="http://www.w3.org/2000/svg">
<mask id="mask0_295_1115" style="mask-type:alpha" maskUnits="userSpaceOnUse" x="0" y="8" width="152" height="141">
<g style="mix-blend-mode:overlay">
<rect y="147.563" width="151.334" height="1.34029" rx="0.670143" fill="#D9D9D9" fill-opacity="0.7"/>
<rect y="144.079" width="151.334" height="1.34029" rx="0.670143" fill="#D9D9D9" fill-opacity="0.7"/>
<rect y="140.594" width="151.334" height="1.34029" rx="0.670143" fill="#D9D9D9" fill-opacity="0.7"/>
<rect y="137.109" width="151.334" height="1.34029" rx="0.670143" fill="#D9D9D9" fill-opacity="0.7"/>
<rect y="133.625" width="151.334" height="1.34029" rx="0.670143" fill="#D9D9D9" fill-opacity="0.7"/>
<rect y="130.14" width="151.334" height="1.34029" rx="0.670143" fill="#D9D9D9" fill-opacity="0.7"/>
<rect y="126.655" width="151.334" height="1.34029" rx="0.670143" fill="#D9D9D9" fill-opacity="0.7"/>
<rect y="123.17" width="151.334" height="1.34029" rx="0.670143" fill="#D9D9D9" fill-opacity="0.7"/>
<rect y="119.686" width="151.334" height="1.34029" rx="0.670143" fill="#D9D9D9" fill-opacity="0.7"/>
<rect y="116.201" width="151.334" height="1.34029" rx="0.670143" fill="#D9D9D9" fill-opacity="0.7"/>
<rect y="112.716" width="151.334" height="1.34029" rx="0.670143" fill="#D9D9D9" fill-opacity="0.7"/>
<rect y="109.231" width="151.334" height="1.34029" rx="0.670143" fill="#D9D9D9" fill-opacity="0.7"/>
<rect y="105.746" width="151.334" height="1.34029" rx="0.670143" fill="#D9D9D9" fill-opacity="0.7"/>
<rect y="102.262" width="151.334" height="1.34029" rx="0.670143" fill="#D9D9D9" fill-opacity="0.7"/>
<rect y="98.7769" width="151.334" height="1.34029" rx="0.670143" fill="#D9D9D9" fill-opacity="0.7"/>
<rect y="95.2922" width="151.334" height="1.34029" rx="0.670143" fill="#D9D9D9" fill-opacity="0.7"/>
<rect y="91.8076" width="151.334" height="1.34029" rx="0.670143" fill="#D9D9D9" fill-opacity="0.7"/>
<rect y="88.3228" width="151.334" height="1.34029" rx="0.670143" fill="#D9D9D9" fill-opacity="0.7"/>
<rect y="84.8381" width="151.334" height="1.34029" rx="0.670143" fill="#D9D9D9" fill-opacity="0.7"/>
<rect y="81.3533" width="151.334" height="1.34029" rx="0.670143" fill="#D9D9D9" fill-opacity="0.7"/>
<rect y="77.8684" width="151.334" height="1.34029" rx="0.670143" fill="#D9D9D9" fill-opacity="0.7"/>
<rect y="74.3838" width="151.334" height="1.34029" rx="0.670143" fill="#D9D9D9" fill-opacity="0.7"/>
<rect y="70.8992" width="151.334" height="1.34029" rx="0.670143" fill="#D9D9D9" fill-opacity="0.7"/>
<rect y="67.4143" width="151.334" height="1.34029" rx="0.670143" fill="#D9D9D9" fill-opacity="0.7"/>
<rect y="63.9294" width="151.334" height="1.34029" rx="0.670143" fill="#D9D9D9" fill-opacity="0.7"/>
<rect y="60.4448" width="151.334" height="1.34029" rx="0.670143" fill="#D9D9D9" fill-opacity="0.7"/>
<rect y="56.96" width="151.334" height="1.34029" rx="0.670143" fill="#D9D9D9" fill-opacity="0.7"/>
<rect y="53.4753" width="151.334" height="1.34029" rx="0.670143" fill="#D9D9D9" fill-opacity="0.7"/>
<rect y="49.9905" width="151.334" height="1.34029" rx="0.670143" fill="#D9D9D9" fill-opacity="0.7"/>
<rect y="46.5059" width="151.334" height="1.34029" rx="0.670143" fill="#D9D9D9" fill-opacity="0.7"/>
<rect y="43.021" width="151.334" height="1.34029" rx="0.670143" fill="#D9D9D9" fill-opacity="0.7"/>
<rect y="39.5361" width="151.334" height="1.34029" rx="0.670143" fill="#D9D9D9" fill-opacity="0.7"/>
<rect y="36.0515" width="151.334" height="1.34029" rx="0.670143" fill="#D9D9D9" fill-opacity="0.7"/>
<rect y="32.5669" width="151.334" height="1.34029" rx="0.670143" fill="#D9D9D9" fill-opacity="0.7"/>
<rect y="29.082" width="151.334" height="1.34029" rx="0.670143" fill="#D9D9D9" fill-opacity="0.7"/>
<rect y="25.5974" width="151.334" height="1.34029" rx="0.670143" fill="#D9D9D9" fill-opacity="0.7"/>
<rect y="22.1125" width="151.334" height="1.34029" rx="0.670143" fill="#D9D9D9" fill-opacity="0.7"/>
<rect y="18.6279" width="151.334" height="1.34029" rx="0.670143" fill="#D9D9D9" fill-opacity="0.7"/>
<rect y="15.1433" width="151.334" height="1.34029" rx="0.670143" fill="#D9D9D9" fill-opacity="0.7"/>
<rect y="11.6584" width="151.334" height="1.34029" rx="0.670143" fill="#D9D9D9" fill-opacity="0.7"/>
<rect y="8.17358" width="151.334" height="1.34029" rx="0.670143" fill="#D9D9D9" fill-opacity="0.7"/>
</g>
</mask>
<g mask="url(#mask0_295_1115)">
<g filter="url(#filter0_iii_295_1115)">
<path d="M141.899 104.46C141.803 117.804 135.755 127.548 123.755 133.692C111.755 139.836 96.1069 142.908 76.8109 142.908C55.0189 142.908 38.3629 139.212 26.8429 131.82C15.3229 124.332 9.56289 113.1 9.56289 98.1242H43.2589C43.2589 105.516 46.5229 110.94 53.0509 114.396C59.5789 117.756 67.4989 119.388 76.8109 119.292C84.9709 119.484 91.8829 118.38 97.5469 115.98C103.307 113.58 106.235 109.74 106.331 104.46C106.235 101.772 105.515 99.7562 104.171 98.4122C102.827 96.9722 100.619 96.0122 97.5469 95.5322C94.4749 94.9562 90.1549 94.6682 84.5869 94.6682H57.9469V73.9322H84.5869C92.1709 73.9322 97.5949 72.9722 100.859 71.0522C104.123 69.1322 105.755 66.7802 105.755 63.9962C105.755 60.4442 102.923 57.8522 97.2589 56.2202C91.6909 54.4922 84.8749 53.5802 76.8109 53.4842C67.4989 53.4842 59.5789 54.4922 53.0509 56.5082C46.5229 58.4282 43.2589 61.4522 43.2589 65.5802H9.56289C9.56289 51.7562 16.5229 42.3962 30.4429 37.5002C44.4589 32.5082 59.9149 30.0122 76.8109 30.0122C87.0829 30.0122 96.6349 30.6842 105.467 32.0282C114.395 33.2762 122.219 36.2522 128.939 40.9562C135.659 45.6602 139.019 52.6202 139.019 61.8362C139.019 71.2442 133.259 77.6762 121.739 81.1322C134.219 84.8762 140.939 92.5562 141.899 104.172V104.46Z" fill="#FF5C17"/>
</g>
</g>
<g filter="url(#filter1_i_295_1115)">
<path d="M142.466 103.388L146.219 103.415L146.219 103.401V103.388H142.466ZM124.322 132.62L122.612 129.28L124.322 132.62ZM27.4103 130.748L25.365 133.894L25.3743 133.9L25.3836 133.906L27.4103 130.748ZM10.1303 97.052V93.2992H6.37747V97.052H10.1303ZM43.8263 97.052H47.5791V93.2992H43.8263V97.052ZM53.6183 113.324L51.8624 116.641L51.8815 116.651L51.9008 116.661L53.6183 113.324ZM77.3783 118.22L77.4666 114.468L77.4031 114.467L77.3396 114.467L77.3783 118.22ZM98.1143 114.908L96.6709 111.444L96.6605 111.448L96.6501 111.453L98.1143 114.908ZM106.898 103.388L110.65 103.456L110.652 103.355L110.649 103.254L106.898 103.388ZM104.738 97.34L101.995 99.9006L102.039 99.9479L102.085 99.9936L104.738 97.34ZM98.1143 94.46L97.4227 98.1485L97.4787 98.159L97.5349 98.1678L98.1143 94.46ZM58.5143 93.596H54.7615V97.3488H58.5143V93.596ZM58.5143 72.86V69.1072H54.7615V72.86H58.5143ZM101.426 69.98L103.329 73.2146L101.426 69.98ZM97.8263 55.148L96.7139 58.7321L96.7505 58.7435L96.7872 58.7541L97.8263 55.148ZM77.3783 52.412L77.423 48.6594L77.4006 48.6592H77.3783V52.412ZM53.6183 55.436L54.6772 59.0363L54.7015 59.0291L54.7256 59.0217L53.6183 55.436ZM43.8263 64.508V68.2608H47.5791V64.508H43.8263ZM10.1303 64.508H6.37747V68.2608H10.1303V64.508ZM31.0103 36.428L32.2554 39.9682L32.2624 39.9657L32.2694 39.9632L31.0103 36.428ZM106.034 30.956L105.47 34.6661L105.492 34.6695L105.515 34.6726L106.034 30.956ZM129.506 39.884L131.658 36.8095L129.506 39.884ZM122.306 80.06L121.228 76.4654L109.246 80.06L121.228 83.6545L122.306 80.06ZM142.466 103.1H146.219V102.945L146.206 102.791L142.466 103.1ZM138.714 103.361C138.67 109.457 137.274 114.53 134.67 118.725C132.064 122.922 128.112 126.463 122.612 129.28L126.033 135.96C132.532 132.633 137.604 128.23 141.047 122.683C144.491 117.134 146.167 110.662 146.219 103.415L138.714 103.361ZM122.612 129.28C111.32 135.061 96.319 138.083 77.3783 138.083V145.589C97.0295 145.589 113.325 142.467 126.033 135.96L122.612 129.28ZM77.3783 138.083C55.9165 138.083 40.0924 134.427 29.437 127.589L25.3836 133.906C37.7682 141.853 55.256 145.589 77.3783 145.589V138.083ZM29.4555 127.601C19.1096 120.877 13.8831 110.894 13.8831 97.052H6.37747C6.37747 113.162 12.6709 125.643 25.365 133.894L29.4555 127.601ZM10.1303 100.805H43.8263V93.2992H10.1303V100.805ZM40.0735 97.052C40.0735 101.314 41.0199 105.211 43.0588 108.599C45.0977 111.987 48.0972 114.647 51.8624 116.641L55.3742 110.007C52.6113 108.545 50.7148 106.765 49.4898 104.729C48.2646 102.693 47.5791 100.182 47.5791 97.052H40.0735ZM51.9008 116.661C59.098 120.365 67.6544 122.073 77.417 121.973L77.3396 114.467C68.4781 114.559 61.1945 113.003 55.3357 109.987L51.9008 116.661ZM77.29 121.972C85.817 122.172 93.2913 121.027 99.5784 118.363L96.6501 111.453C91.6092 113.589 85.2595 114.652 77.4666 114.468L77.29 121.972ZM99.5577 118.372C102.873 116.991 105.65 115.08 107.615 112.503C109.609 109.888 110.589 106.816 110.65 103.456L103.146 103.32C103.111 105.24 102.58 106.728 101.646 107.952C100.683 109.216 99.1157 110.425 96.6709 111.444L99.5577 118.372ZM110.649 103.254C110.533 100.011 109.641 96.9359 107.392 94.6863L102.085 99.9936C102.523 100.432 103.072 101.389 103.148 103.522L110.649 103.254ZM107.482 94.7794C105.317 92.4603 102.146 91.2916 98.6936 90.7522L97.5349 98.1678C100.227 98.5884 101.471 99.3396 101.995 99.9006L107.482 94.7794ZM98.8059 90.7714C95.395 90.1319 90.8047 89.8432 85.1543 89.8432V97.3488C90.6399 97.3488 94.6896 97.636 97.4227 98.1485L98.8059 90.7714ZM85.1543 89.8432H58.5143V97.3488H85.1543V89.8432ZM62.2671 93.596V72.86H54.7615V93.596H62.2671ZM58.5143 76.6128H85.1543V69.1072H58.5143V76.6128ZM85.1543 76.6128C92.8595 76.6128 99.151 75.6723 103.329 73.2146L99.5235 66.7453C97.1736 68.1276 92.6171 69.1072 85.1543 69.1072V76.6128ZM103.329 73.2146C107.274 70.8939 110.075 67.5009 110.075 62.924H102.569C102.569 63.915 102.106 65.2261 99.5235 66.7453L103.329 73.2146ZM110.075 62.924C110.075 60.0033 108.854 57.4902 106.732 55.5476C104.721 53.7074 101.983 52.4403 98.8653 51.5419L96.7872 58.7541C99.3331 59.4876 100.843 60.3326 101.665 61.0843C102.374 61.7338 102.569 62.2926 102.569 62.924H110.075ZM98.9386 51.5638C92.9208 49.6962 85.7213 48.7582 77.423 48.6594L77.3336 56.1645C85.1633 56.2577 91.5957 57.1437 96.7139 58.7321L98.9386 51.5638ZM77.3783 48.6592C67.8171 48.6592 59.501 49.6915 52.5109 51.8503L54.7256 59.0217C60.7915 57.1484 68.3154 56.1648 77.3783 56.1648V48.6592ZM52.5594 51.8357C49.0067 52.8806 45.9465 54.3317 43.7238 56.3911C41.392 58.5514 40.0735 61.3112 40.0735 64.508H47.5791C47.5791 63.5767 47.8926 62.7605 48.8248 61.8969C49.866 60.9322 51.7019 59.9114 54.6772 59.0363L52.5594 51.8357ZM43.8263 60.7552H10.1303V68.2608H43.8263V60.7552ZM13.8831 64.508C13.8831 58.2486 15.4476 53.2783 18.3618 49.3593C21.2906 45.4204 25.8139 42.2338 32.2554 39.9682L29.7651 32.8878C22.2866 35.5181 16.3699 39.4595 12.3388 44.8807C8.29296 50.3216 6.37747 56.9433 6.37747 64.508H13.8831ZM32.2694 39.9632C45.8304 35.1333 60.8539 32.6928 77.3783 32.6928V25.1872C60.1107 25.1872 44.2221 27.7386 29.7511 32.8927L32.2694 39.9632ZM77.3783 32.6928C87.4887 32.6928 96.8498 33.3543 105.47 34.6661L106.599 27.2459C97.5548 25.8696 87.8119 25.1872 77.3783 25.1872V32.6928ZM105.515 34.6726C113.915 35.8468 121.167 38.6271 127.354 42.9584L131.658 36.8095C124.406 31.7328 116.01 28.5611 106.554 27.2393L105.515 34.6726ZM127.354 42.9584C132.935 46.865 135.833 52.5968 135.833 60.764H143.339C143.339 50.4991 139.517 42.3109 131.658 36.8095L127.354 42.9584ZM135.833 60.764C135.833 64.6338 134.677 67.6767 132.471 70.1404C130.199 72.6773 126.575 74.8614 121.228 76.4654L123.385 83.6545C129.558 81.8026 134.574 79.0426 138.062 75.1475C141.616 71.1793 143.339 66.3021 143.339 60.764H135.833ZM121.228 83.6545C126.977 85.3792 131.099 87.9191 133.882 91.0992C136.64 94.2512 138.303 98.2826 138.726 103.409L146.206 102.791C145.67 96.3013 143.493 90.6847 139.531 86.1567C135.593 81.6569 130.116 78.4847 123.385 76.4654L121.228 83.6545ZM138.713 103.1V103.388H146.219V103.1H138.713Z" fill="#FF5C17"/>
</g>
<defs>
<filter id="filter0_iii_295_1115" x="5.00553" y="25.4552" width="143.594" height="124.154" filterUnits="userSpaceOnUse" color-interpolation-filters="sRGB">
<feFlood flood-opacity="0" result="BackgroundImageFix"/>
<feBlend mode="normal" in="SourceGraphic" in2="BackgroundImageFix" result="shape"/>
<feColorMatrix in="SourceAlpha" type="matrix" values="0 0 0 0 0 0 0 0 0 0 0 0 0 0 0 0 0 0 127 0" result="hardAlpha"/>
<feOffset dx="-4.55697" dy="-4.55697"/>
<feGaussianBlur stdDeviation="4.691"/>
<feComposite in2="hardAlpha" operator="arithmetic" k2="-1" k3="1"/>
<feColorMatrix type="matrix" values="0 0 0 0 1 0 0 0 0 1 0 0 0 0 1 0 0 0 0.3 0"/>
<feBlend mode="normal" in2="shape" result="effect1_innerShadow_295_1115"/>
<feColorMatrix in="SourceAlpha" type="matrix" values="0 0 0 0 0 0 0 0 0 0 0 0 0 0 0 0 0 0 127 0" result="hardAlpha"/>
<feOffset dx="1.34029" dy="1.34029"/>
<feGaussianBlur stdDeviation="2.68057"/>
<feComposite in2="hardAlpha" operator="arithmetic" k2="-1" k3="1"/>
<feColorMatrix type="matrix" values="0 0 0 0 0.00784314 0 0 0 0 0 0 0 0 0 0.396078 0 0 0 0.5 0"/>
<feBlend mode="normal" in2="effect1_innerShadow_295_1115" result="effect2_innerShadow_295_1115"/>
<feColorMatrix in="SourceAlpha" type="matrix" values="0 0 0 0 0 0 0 0 0 0 0 0 0 0 0 0 0 0 127 0" result="hardAlpha"/>
<feOffset dx="6.70143" dy="6.70143"/>
<feGaussianBlur stdDeviation="5.76323"/>
<feComposite in2="hardAlpha" operator="arithmetic" k2="-1" k3="1"/>
<feColorMatrix type="matrix" values="0 0 0 0 0.00784314 0 0 0 0 0 0 0 0 0 0.396078 0 0 0 0.5 0"/>
<feBlend mode="normal" in2="effect2_innerShadow_295_1115" result="effect3_innerShadow_295_1115"/>
</filter>
<filter id="filter1_i_295_1115" x="10.1299" y="28.9399" width="132.872" height="113.432" filterUnits="userSpaceOnUse" color-interpolation-filters="sRGB">
<feFlood flood-opacity="0" result="BackgroundImageFix"/>
<feBlend mode="normal" in="SourceGraphic" in2="BackgroundImageFix" result="shape"/>
<feColorMatrix in="SourceAlpha" type="matrix" values="0 0 0 0 0 0 0 0 0 0 0 0 0 0 0 0 0 0 127 0" result="hardAlpha"/>
<feOffset dx="0.536115" dy="0.536115"/>
<feGaussianBlur stdDeviation="0.536115"/>
<feComposite in2="hardAlpha" operator="arithmetic" k2="-1" k3="1"/>
<feColorMatrix type="matrix" values="0 0 0 0 1 0 0 0 0 1 0 0 0 0 1 0 0 0 0.9 0"/>
<feBlend mode="normal" in2="shape" result="effect1_innerShadow_295_1115"/>
</filter>
</defs>
</svg>
