<svg width="214" height="72" viewBox="0 0 214 72" fill="none" xmlns="http://www.w3.org/2000/svg">
<rect y="0.367676" width="14.2038" height="13.8396" fill="#313131"/>
<rect y="35.3308" width="14.2038" height="13.8396" fill="#313131"/>
<rect x="17.4814" y="24.405" width="14.2038" height="13.8396" fill="#313131"/>
<rect x="34.2354" y="13.1143" width="14.2038" height="13.8396" fill="#313131"/>
<rect x="34.2354" y="35.3308" width="14.2038" height="13.8396" fill="#313131"/>
<rect x="34.2354" y="51.7195" width="14.2038" height="13.8396" fill="#313131"/>
<rect x="16.7529" y="57.9113" width="14.2038" height="13.8396" fill="#313131"/>
<rect x="17.1172" y="41.1577" width="14.2038" height="13.8396" fill="#313131"/>
<rect y="57.9113" width="14.2038" height="13.8396" fill="#313131"/>
<rect x="75.0967" y="55.2448" width="3.30095" height="137.815" transform="rotate(-90 75.0967 55.2448)" fill="#FF5C17"/>
<path d="M75.1937 44.2362V31.1871H78.1439L85.4968 40.0151H84.1579V31.1871H87.6754V44.2362H84.7252L77.3497 35.4082H78.7113V44.2362H75.1937ZM89.2209 44.2362L95.076 31.1871H98.6163L104.494 44.2362H100.954L96.2561 32.9119H97.4589L92.6931 44.2362H89.2209ZM92.4208 41.6491L93.3512 39.062H99.7963L100.727 41.6491H92.4208ZM116.278 40.2648C116.278 41.0817 116.044 41.8079 115.575 42.4434C115.121 43.0788 114.455 43.5781 113.578 43.9412C112.715 44.3043 111.649 44.4858 110.378 44.4858C109.334 44.4858 108.305 44.3572 107.292 44.1C106.293 43.8428 105.484 43.5024 104.863 43.0788L106.111 40.4236C106.702 40.817 107.39 41.1271 108.177 41.3541C108.963 41.581 109.765 41.6945 110.582 41.6945C111.384 41.6945 111.944 41.581 112.262 41.3541C112.579 41.1271 112.738 40.8624 112.738 40.5598C112.738 40.2572 112.594 40.0151 112.307 39.8336C112.035 39.652 111.672 39.5083 111.218 39.4024C110.779 39.2813 110.287 39.1679 109.743 39.062C109.213 38.9561 108.676 38.8199 108.131 38.6535C107.602 38.4871 107.11 38.2677 106.656 37.9954C106.217 37.7079 105.854 37.3372 105.567 36.8833C105.294 36.4143 105.158 35.8319 105.158 35.1359C105.158 34.3189 105.393 33.6003 105.862 32.98C106.346 32.3445 107.027 31.8453 107.904 31.4822C108.782 31.1191 109.826 30.9375 111.036 30.9375C111.853 30.9375 112.685 31.0283 113.532 31.2098C114.38 31.3914 115.121 31.6789 115.756 32.0722L114.599 34.7274C114.009 34.3643 113.396 34.1071 112.761 33.9558C112.141 33.8045 111.52 33.7289 110.9 33.7289C110.143 33.7289 109.591 33.8423 109.243 34.0693C108.895 34.2962 108.721 34.5837 108.721 34.9317C108.721 35.2342 108.857 35.4763 109.13 35.6579C109.402 35.8394 109.758 35.9907 110.196 36.1117C110.65 36.2177 111.15 36.3236 111.694 36.4295C112.239 36.5354 112.776 36.6715 113.305 36.838C113.835 36.9893 114.327 37.2011 114.781 37.4734C115.234 37.7457 115.598 38.1088 115.87 38.5627C116.142 39.0015 116.278 39.5688 116.278 40.2648ZM118.543 44.2362V31.1871H122.128V36.1798H127.439V31.1871H131.025V44.2362H127.439V39.062H122.128V44.2362H118.543ZM132.57 44.2362L138.425 31.1871H141.965L147.843 44.2362H144.303L139.605 32.9119H140.808L136.042 44.2362H132.57ZM135.77 41.6491L136.7 39.062H143.145L144.076 41.6491H135.77ZM158.27 44.2362V33.9785H154.163V31.1871H165.964V33.9785H161.856V44.2362H158.27ZM170.986 36.316H177.295V38.9258H170.986V36.316ZM171.349 41.4902H178.317V44.2362H167.809V31.1871H178.067V33.9331H171.349V41.4902ZM180.929 44.2362V31.1871H183.925L189.326 39.9697H187.874L193.161 31.1871H196.18L196.225 44.2362H192.866L192.844 36.2933H193.343L189.349 42.8519H187.737L183.607 36.2933H184.265V44.2362H180.929ZM197.749 44.2362L203.604 31.1871H207.144L213.022 44.2362H209.482L204.784 32.9119H205.987L201.221 44.2362H197.749ZM200.949 41.6491L201.879 39.062H208.324L209.255 41.6491H200.949Z" fill="#313131"/>
</svg>
