<svg width="201" height="198" viewBox="0 0 201 198" fill="none" xmlns="http://www.w3.org/2000/svg">
<mask id="mask0_77_356" style="mask-type:alpha" maskUnits="userSpaceOnUse" x="0" y="0" width="201" height="198">
<g style="mix-blend-mode:overlay">
<rect x="0.106445" y="195.654" width="200.125" height="1.8764" rx="0.9382" fill="#D9D9D9" fill-opacity="0.7"/>
<rect x="0.106445" y="190.775" width="200.125" height="1.8764" rx="0.9382" fill="#D9D9D9" fill-opacity="0.7"/>
<rect x="0.106445" y="185.896" width="200.125" height="1.8764" rx="0.9382" fill="#D9D9D9" fill-opacity="0.7"/>
<rect x="0.106445" y="181.018" width="200.125" height="1.8764" rx="0.9382" fill="#D9D9D9" fill-opacity="0.7"/>
<rect x="0.106445" y="176.139" width="200.125" height="1.8764" rx="0.9382" fill="#D9D9D9" fill-opacity="0.7"/>
<rect x="0.106445" y="171.26" width="200.125" height="1.8764" rx="0.9382" fill="#D9D9D9" fill-opacity="0.7"/>
<rect x="0.106445" y="166.382" width="200.125" height="1.8764" rx="0.9382" fill="#D9D9D9" fill-opacity="0.7"/>
<rect x="0.106445" y="161.503" width="200.125" height="1.8764" rx="0.9382" fill="#D9D9D9" fill-opacity="0.7"/>
<rect x="0.106445" y="156.625" width="200.125" height="1.8764" rx="0.9382" fill="#D9D9D9" fill-opacity="0.7"/>
<rect x="0.106445" y="151.746" width="200.125" height="1.8764" rx="0.9382" fill="#D9D9D9" fill-opacity="0.7"/>
<rect x="0.106445" y="146.867" width="200.125" height="1.8764" rx="0.9382" fill="#D9D9D9" fill-opacity="0.7"/>
<rect x="0.106445" y="141.989" width="200.125" height="1.8764" rx="0.9382" fill="#D9D9D9" fill-opacity="0.7"/>
<rect x="0.106445" y="137.11" width="200.125" height="1.8764" rx="0.9382" fill="#D9D9D9" fill-opacity="0.7"/>
<rect x="0.106445" y="132.231" width="200.125" height="1.8764" rx="0.9382" fill="#D9D9D9" fill-opacity="0.7"/>
<rect x="0.106445" y="127.353" width="200.125" height="1.8764" rx="0.9382" fill="#D9D9D9" fill-opacity="0.7"/>
<rect x="0.106445" y="122.474" width="200.125" height="1.8764" rx="0.9382" fill="#D9D9D9" fill-opacity="0.7"/>
<rect x="0.106445" y="117.595" width="200.125" height="1.8764" rx="0.9382" fill="#D9D9D9" fill-opacity="0.7"/>
<rect x="0.106445" y="112.717" width="200.125" height="1.8764" rx="0.9382" fill="#D9D9D9" fill-opacity="0.7"/>
<rect x="0.106445" y="107.838" width="200.125" height="1.8764" rx="0.9382" fill="#D9D9D9" fill-opacity="0.7"/>
<rect x="0.106445" y="102.959" width="200.125" height="1.8764" rx="0.9382" fill="#D9D9D9" fill-opacity="0.7"/>
<rect x="0.106445" y="98.0806" width="200.125" height="1.8764" rx="0.9382" fill="#D9D9D9" fill-opacity="0.7"/>
<rect x="0.106445" y="93.202" width="200.125" height="1.8764" rx="0.9382" fill="#D9D9D9" fill-opacity="0.7"/>
<rect x="0.106445" y="88.3235" width="200.125" height="1.8764" rx="0.9382" fill="#D9D9D9" fill-opacity="0.7"/>
<rect x="0.106445" y="83.4448" width="200.125" height="1.8764" rx="0.9382" fill="#D9D9D9" fill-opacity="0.7"/>
<rect x="0.106445" y="78.5662" width="200.125" height="1.8764" rx="0.9382" fill="#D9D9D9" fill-opacity="0.7"/>
<rect x="0.106445" y="73.6875" width="200.125" height="1.8764" rx="0.9382" fill="#D9D9D9" fill-opacity="0.7"/>
<rect x="0.106445" y="68.8088" width="200.125" height="1.8764" rx="0.9382" fill="#D9D9D9" fill-opacity="0.7"/>
<rect x="0.106445" y="63.9303" width="200.125" height="1.8764" rx="0.9382" fill="#D9D9D9" fill-opacity="0.7"/>
<rect x="0.106445" y="59.0515" width="200.125" height="1.8764" rx="0.9382" fill="#D9D9D9" fill-opacity="0.7"/>
<rect x="0.106445" y="54.173" width="200.125" height="1.8764" rx="0.9382" fill="#D9D9D9" fill-opacity="0.7"/>
<rect x="0.106445" y="49.2943" width="200.125" height="1.8764" rx="0.9382" fill="#D9D9D9" fill-opacity="0.7"/>
<rect x="0.106445" y="44.4155" width="200.125" height="1.8764" rx="0.9382" fill="#D9D9D9" fill-opacity="0.7"/>
<rect x="0.106445" y="39.5371" width="200.125" height="1.8764" rx="0.9382" fill="#D9D9D9" fill-opacity="0.7"/>
<rect x="0.106445" y="34.6583" width="200.125" height="1.8764" rx="0.9382" fill="#D9D9D9" fill-opacity="0.7"/>
<rect x="0.106445" y="29.7798" width="200.125" height="1.8764" rx="0.9382" fill="#D9D9D9" fill-opacity="0.7"/>
<rect x="0.106445" y="24.901" width="200.125" height="1.8764" rx="0.9382" fill="#D9D9D9" fill-opacity="0.7"/>
<rect x="0.106445" y="20.0223" width="200.125" height="1.8764" rx="0.9382" fill="#D9D9D9" fill-opacity="0.7"/>
<rect x="0.106445" y="15.1438" width="200.125" height="1.8764" rx="0.9382" fill="#D9D9D9" fill-opacity="0.7"/>
<rect x="0.106445" y="10.2653" width="200.125" height="1.8764" rx="0.9382" fill="#D9D9D9" fill-opacity="0.7"/>
<rect x="0.106445" y="5.38647" width="200.125" height="1.8764" rx="0.9382" fill="#D9D9D9" fill-opacity="0.7"/>
<rect x="0.106445" y="0.507812" width="200.125" height="1.8764" rx="0.9382" fill="#D9D9D9" fill-opacity="0.7"/>
</g>
</mask>
<g mask="url(#mask0_77_356)">
<g filter="url(#filter0_iii_77_356)">
<path d="M155.101 117.085H174.803V150.485H155.101V171.501H111.569V150.485H12.8699V117.085L111.569 32.6474H155.101V117.085ZM111.569 70.1755L58.0911 117.085H111.569V70.1755Z" fill="#FF5C17"/>
</g>
</g>
<defs>
<filter id="filter0_iii_77_356" x="6.49035" y="26.2677" width="177.695" height="154.615" filterUnits="userSpaceOnUse" color-interpolation-filters="sRGB">
<feFlood flood-opacity="0" result="BackgroundImageFix"/>
<feBlend mode="normal" in="SourceGraphic" in2="BackgroundImageFix" result="shape"/>
<feColorMatrix in="SourceAlpha" type="matrix" values="0 0 0 0 0 0 0 0 0 0 0 0 0 0 0 0 0 0 127 0" result="hardAlpha"/>
<feOffset dx="-6.37976" dy="-6.37976"/>
<feGaussianBlur stdDeviation="6.5674"/>
<feComposite in2="hardAlpha" operator="arithmetic" k2="-1" k3="1"/>
<feColorMatrix type="matrix" values="0 0 0 0 1 0 0 0 0 1 0 0 0 0 1 0 0 0 0.3 0"/>
<feBlend mode="normal" in2="shape" result="effect1_innerShadow_77_356"/>
<feColorMatrix in="SourceAlpha" type="matrix" values="0 0 0 0 0 0 0 0 0 0 0 0 0 0 0 0 0 0 127 0" result="hardAlpha"/>
<feOffset dx="1.8764" dy="1.8764"/>
<feGaussianBlur stdDeviation="3.7528"/>
<feComposite in2="hardAlpha" operator="arithmetic" k2="-1" k3="1"/>
<feColorMatrix type="matrix" values="0 0 0 0 0.00784314 0 0 0 0 0 0 0 0 0 0.396078 0 0 0 0.5 0"/>
<feBlend mode="normal" in2="effect1_innerShadow_77_356" result="effect2_innerShadow_77_356"/>
<feColorMatrix in="SourceAlpha" type="matrix" values="0 0 0 0 0 0 0 0 0 0 0 0 0 0 0 0 0 0 127 0" result="hardAlpha"/>
<feOffset dx="9.382" dy="9.382"/>
<feGaussianBlur stdDeviation="8.06852"/>
<feComposite in2="hardAlpha" operator="arithmetic" k2="-1" k3="1"/>
<feColorMatrix type="matrix" values="0 0 0 0 0.00784314 0 0 0 0 0 0 0 0 0 0.396078 0 0 0 0.5 0"/>
<feBlend mode="normal" in2="effect2_innerShadow_77_356" result="effect3_innerShadow_77_356"/>
</filter>
</defs>
</svg>
