<svg width="239" height="223" viewBox="0 0 239 223" fill="none" xmlns="http://www.w3.org/2000/svg">
<mask id="mask0_77_215" style="mask-type:alpha" maskUnits="userSpaceOnUse" x="0" y="0" width="239" height="223">
<g style="mix-blend-mode:overlay">
<rect x="0.0332031" y="220.52" width="238.515" height="2.11241" rx="1.0562" fill="#D9D9D9" fill-opacity="0.7"/>
<rect x="0.0332031" y="215.028" width="238.515" height="2.11241" rx="1.0562" fill="#D9D9D9" fill-opacity="0.7"/>
<rect x="0.0332031" y="209.536" width="238.515" height="2.11241" rx="1.0562" fill="#D9D9D9" fill-opacity="0.7"/>
<rect x="0.0332031" y="204.043" width="238.515" height="2.11241" rx="1.0562" fill="#D9D9D9" fill-opacity="0.7"/>
<rect x="0.0332031" y="198.551" width="238.515" height="2.11241" rx="1.0562" fill="#D9D9D9" fill-opacity="0.7"/>
<rect x="0.0332031" y="193.059" width="238.515" height="2.11241" rx="1.0562" fill="#D9D9D9" fill-opacity="0.7"/>
<rect x="0.0332031" y="187.567" width="238.515" height="2.11241" rx="1.0562" fill="#D9D9D9" fill-opacity="0.7"/>
<rect x="0.0332031" y="182.074" width="238.515" height="2.11241" rx="1.0562" fill="#D9D9D9" fill-opacity="0.7"/>
<rect x="0.0332031" y="176.582" width="238.515" height="2.11241" rx="1.0562" fill="#D9D9D9" fill-opacity="0.7"/>
<rect x="0.0332031" y="171.09" width="238.515" height="2.11241" rx="1.0562" fill="#D9D9D9" fill-opacity="0.7"/>
<rect x="0.0332031" y="165.598" width="238.515" height="2.11241" rx="1.0562" fill="#D9D9D9" fill-opacity="0.7"/>
<rect x="0.0332031" y="160.105" width="238.515" height="2.11241" rx="1.0562" fill="#D9D9D9" fill-opacity="0.7"/>
<rect x="0.0332031" y="154.613" width="238.515" height="2.11241" rx="1.0562" fill="#D9D9D9" fill-opacity="0.7"/>
<rect x="0.0332031" y="149.121" width="238.515" height="2.11241" rx="1.0562" fill="#D9D9D9" fill-opacity="0.7"/>
<rect x="0.0332031" y="143.628" width="238.515" height="2.11241" rx="1.0562" fill="#D9D9D9" fill-opacity="0.7"/>
<rect x="0.0332031" y="138.136" width="238.515" height="2.11241" rx="1.0562" fill="#D9D9D9" fill-opacity="0.7"/>
<rect x="0.0332031" y="132.644" width="238.515" height="2.11241" rx="1.0562" fill="#D9D9D9" fill-opacity="0.7"/>
<rect x="0.0332031" y="127.152" width="238.515" height="2.11241" rx="1.0562" fill="#D9D9D9" fill-opacity="0.7"/>
<rect x="0.0332031" y="121.659" width="238.515" height="2.11241" rx="1.0562" fill="#D9D9D9" fill-opacity="0.7"/>
<rect x="0.0332031" y="116.167" width="238.515" height="2.11241" rx="1.0562" fill="#D9D9D9" fill-opacity="0.7"/>
<rect x="0.0332031" y="110.675" width="238.515" height="2.11241" rx="1.0562" fill="#D9D9D9" fill-opacity="0.7"/>
<rect x="0.0332031" y="105.183" width="238.515" height="2.11241" rx="1.0562" fill="#D9D9D9" fill-opacity="0.7"/>
<rect x="0.0332031" y="99.6904" width="238.515" height="2.11241" rx="1.0562" fill="#D9D9D9" fill-opacity="0.7"/>
<rect x="0.0332031" y="94.198" width="238.515" height="2.11241" rx="1.0562" fill="#D9D9D9" fill-opacity="0.7"/>
<rect x="0.0332031" y="88.7058" width="238.515" height="2.11241" rx="1.0562" fill="#D9D9D9" fill-opacity="0.7"/>
<rect x="0.0332031" y="83.2135" width="238.515" height="2.11241" rx="1.0562" fill="#D9D9D9" fill-opacity="0.7"/>
<rect x="0.0332031" y="77.7212" width="238.515" height="2.11241" rx="1.0562" fill="#D9D9D9" fill-opacity="0.7"/>
<rect x="0.0332031" y="72.229" width="238.515" height="2.11241" rx="1.0562" fill="#D9D9D9" fill-opacity="0.7"/>
<rect x="0.0332031" y="66.7366" width="238.515" height="2.11241" rx="1.0562" fill="#D9D9D9" fill-opacity="0.7"/>
<rect x="0.0332031" y="61.2445" width="238.515" height="2.11241" rx="1.0562" fill="#D9D9D9" fill-opacity="0.7"/>
<rect x="0.0332031" y="55.7522" width="238.515" height="2.11241" rx="1.0562" fill="#D9D9D9" fill-opacity="0.7"/>
<rect x="0.0332031" y="50.2598" width="238.515" height="2.11241" rx="1.0562" fill="#D9D9D9" fill-opacity="0.7"/>
<rect x="0.0332031" y="44.7678" width="238.515" height="2.11241" rx="1.0562" fill="#D9D9D9" fill-opacity="0.7"/>
<rect x="0.0332031" y="39.2754" width="238.515" height="2.11241" rx="1.0562" fill="#D9D9D9" fill-opacity="0.7"/>
<rect x="0.0332031" y="33.7832" width="238.515" height="2.11241" rx="1.0562" fill="#D9D9D9" fill-opacity="0.7"/>
<rect x="0.0332031" y="28.2908" width="238.515" height="2.11241" rx="1.0562" fill="#D9D9D9" fill-opacity="0.7"/>
<rect x="0.0332031" y="22.7985" width="238.515" height="2.11241" rx="1.0562" fill="#D9D9D9" fill-opacity="0.7"/>
<rect x="0.0332031" y="17.3064" width="238.515" height="2.11241" rx="1.0562" fill="#D9D9D9" fill-opacity="0.7"/>
<rect x="0.0332031" y="11.8141" width="238.515" height="2.11241" rx="1.0562" fill="#D9D9D9" fill-opacity="0.7"/>
<rect x="0.0332031" y="6.32178" width="238.515" height="2.11241" rx="1.0562" fill="#D9D9D9" fill-opacity="0.7"/>
<rect x="0.0332031" y="0.829468" width="238.515" height="2.11241" rx="1.0562" fill="#D9D9D9" fill-opacity="0.7"/>
</g>
</mask>
<g mask="url(#mask0_77_215)">
<g filter="url(#filter0_iii_77_215)">
<path d="M99.2081 37.3716V193.69H50.2002V92.2943H14.9229V63.988C28.8648 63.988 39.2156 62.3685 45.9754 59.1295C52.8759 55.8904 57.1007 52.4402 58.6498 48.7786C60.1989 44.9763 60.9735 41.174 60.9735 37.3716H99.2081Z" fill="#FF5C17"/>
</g>
</g>
<defs>
<filter id="filter0_iii_77_215" x="7.74066" y="30.1894" width="102.029" height="174.063" filterUnits="userSpaceOnUse" color-interpolation-filters="sRGB">
<feFlood flood-opacity="0" result="BackgroundImageFix"/>
<feBlend mode="normal" in="SourceGraphic" in2="BackgroundImageFix" result="shape"/>
<feColorMatrix in="SourceAlpha" type="matrix" values="0 0 0 0 0 0 0 0 0 0 0 0 0 0 0 0 0 0 127 0" result="hardAlpha"/>
<feOffset dx="-7.18219" dy="-7.18219"/>
<feGaussianBlur stdDeviation="7.39343"/>
<feComposite in2="hardAlpha" operator="arithmetic" k2="-1" k3="1"/>
<feColorMatrix type="matrix" values="0 0 0 0 1 0 0 0 0 1 0 0 0 0 1 0 0 0 0.3 0"/>
<feBlend mode="normal" in2="shape" result="effect1_innerShadow_77_215"/>
<feColorMatrix in="SourceAlpha" type="matrix" values="0 0 0 0 0 0 0 0 0 0 0 0 0 0 0 0 0 0 127 0" result="hardAlpha"/>
<feOffset dx="2.11241" dy="2.11241"/>
<feGaussianBlur stdDeviation="4.22482"/>
<feComposite in2="hardAlpha" operator="arithmetic" k2="-1" k3="1"/>
<feColorMatrix type="matrix" values="0 0 0 0 0.00784314 0 0 0 0 0 0 0 0 0 0.396078 0 0 0 0.5 0"/>
<feBlend mode="normal" in2="effect1_innerShadow_77_215" result="effect2_innerShadow_77_215"/>
<feColorMatrix in="SourceAlpha" type="matrix" values="0 0 0 0 0 0 0 0 0 0 0 0 0 0 0 0 0 0 127 0" result="hardAlpha"/>
<feOffset dx="10.562" dy="10.562"/>
<feGaussianBlur stdDeviation="9.08336"/>
<feComposite in2="hardAlpha" operator="arithmetic" k2="-1" k3="1"/>
<feColorMatrix type="matrix" values="0 0 0 0 0.00784314 0 0 0 0 0 0 0 0 0 0.396078 0 0 0 0.5 0"/>
<feBlend mode="normal" in2="effect2_innerShadow_77_215" result="effect3_innerShadow_77_215"/>
</filter>
</defs>
</svg>
