<svg width="106" height="291" viewBox="0 0 106 291" fill="none" xmlns="http://www.w3.org/2000/svg">
<g filter="url(#filter0_i_77_259)">
<path d="M90.1026 46.6817H96.0173V40.7669H90.1026V46.6817ZM90.1026 203V208.915H96.0173V203H90.1026ZM41.0947 203H35.18V208.915H41.0947V203ZM41.0947 101.604H47.0094V95.6896H41.0947V101.604ZM5.81746 101.604H-0.0972871V107.519H5.81746V101.604ZM5.81746 73.298V67.3833H-0.0972871V73.298H5.81746ZM36.8699 68.4395L34.3567 63.0853L34.3353 63.0953L34.314 63.1055L36.8699 68.4395ZM49.5443 58.0887L54.9916 60.3933L55.007 60.3569L55.0219 60.3203L49.5443 58.0887ZM51.868 46.6817V40.7669H45.9532V46.6817H51.868ZM84.1879 46.6817V203H96.0173V46.6817H84.1879ZM90.1026 197.085H41.0947V208.915H90.1026V197.085ZM47.0094 203V101.604H35.18V203H47.0094ZM41.0947 95.6896H5.81746V107.519H41.0947V95.6896ZM11.7322 101.604V73.298H-0.0972871V101.604H11.7322ZM5.81746 79.2128C20.01 79.2128 31.4458 77.5973 39.4258 73.7735L34.314 63.1055C28.7746 65.7598 19.5087 67.3833 5.81746 67.3833V79.2128ZM39.3831 73.7938C46.5467 70.4312 52.5422 66.1829 54.9916 60.3933L44.097 55.7841C43.4483 57.3175 40.9941 59.9697 34.3567 63.0853L39.3831 73.7938ZM55.0219 60.3203C56.8365 55.8664 57.7827 51.3084 57.7827 46.6817H45.9532C45.9532 49.6596 45.3504 52.7063 44.0667 55.8571L55.0219 60.3203ZM51.868 52.5964H90.1026V40.7669H51.868V52.5964Z" fill="#FF5C17"/>
</g>
<defs>
<filter id="filter0_i_77_259" x="5.81738" y="46.6816" width="85.1301" height="157.163" filterUnits="userSpaceOnUse" color-interpolation-filters="sRGB">
<feFlood flood-opacity="0" result="BackgroundImageFix"/>
<feBlend mode="normal" in="SourceGraphic" in2="BackgroundImageFix" result="shape"/>
<feColorMatrix in="SourceAlpha" type="matrix" values="0 0 0 0 0 0 0 0 0 0 0 0 0 0 0 0 0 0 127 0" result="hardAlpha"/>
<feOffset dx="0.844964" dy="0.844964"/>
<feGaussianBlur stdDeviation="0.844964"/>
<feComposite in2="hardAlpha" operator="arithmetic" k2="-1" k3="1"/>
<feColorMatrix type="matrix" values="0 0 0 0 1 0 0 0 0 1 0 0 0 0 1 0 0 0 0.9 0"/>
<feBlend mode="normal" in2="shape" result="effect1_innerShadow_77_259"/>
</filter>
</defs>
</svg>
