<svg width="181" height="239" viewBox="0 0 181 239" fill="none" xmlns="http://www.w3.org/2000/svg">
<g filter="url(#filter0_i_77_306)">
<path d="M166.054 135.049H170.923V130.18H166.054V135.049ZM166.054 166V170.869H170.923V166H166.054ZM4.51795 166H-0.350748V170.869H4.51795V166ZM14.9509 115.4L18.6016 118.622L18.6133 118.608L18.6248 118.595L14.9509 115.4ZM38.0772 99.4032L39.5403 104.047L39.5597 104.041L39.5792 104.034L38.0772 99.4032ZM69.5498 92.274L70.3138 97.0824L70.332 97.0795L70.3502 97.0765L69.5498 92.274ZM85.547 90.1874L86.0314 95.032L86.0822 95.0269L86.1328 95.0208L85.547 90.1874ZM103.457 87.5792L102.575 82.7911L102.563 82.7932L102.552 82.7954L103.457 87.5792ZM114.411 83.7538L116.916 87.9287L116.977 87.8925L117.036 87.8546L114.411 83.7538ZM108.152 65.3223L106.567 69.9258L106.601 69.9375L106.635 69.9487L108.152 65.3223ZM82.4171 61.6708V56.8021H82.3878L82.3584 56.8024L82.4171 61.6708ZM57.8997 66.3656L59.8269 70.8366L59.8592 70.8227L59.8913 70.8083L57.8997 66.3656ZM47.8146 79.9284V84.7971H52.6833V79.9284H47.8146ZM4.51795 79.9284H-0.350748V84.7971H4.51795V79.9284ZM28.6875 43.4132L30.5069 47.9291L30.5209 47.9235L30.5348 47.9178L28.6875 43.4132ZM138.233 41.8482L136.654 46.4538L136.664 46.4572L138.233 41.8482ZM153.535 99.0554L156.765 102.698L156.784 102.681L156.803 102.664L153.535 99.0554ZM132.669 110.706L131.276 106.04L131.267 106.043L131.257 106.046L132.669 110.706ZM106.934 116.618L106.115 111.818L106.076 111.825L106.037 111.832L106.934 116.618ZM101.37 117.661V122.529H101.823L102.267 122.446L101.37 117.661ZM95.806 118.53L96.4945 123.35L96.5939 123.336L96.6926 123.318L95.806 118.53ZM57.552 125.659L58.7069 130.389L58.7262 130.384L58.7456 130.379L57.552 125.659ZM42.5981 135.049H37.7294V139.918H42.5981V135.049ZM161.186 135.049V166H170.923V135.049H161.186ZM166.054 161.131H4.51795V170.869H166.054V161.131ZM9.38665 166V149.481H-0.350748V166H9.38665ZM9.38665 149.481C9.38665 135.345 12.7016 125.308 18.6016 118.622L11.3001 112.179C3.28957 121.258 -0.350748 133.942 -0.350748 149.481H9.38665ZM18.6248 118.595C25.1065 111.141 32.0882 106.395 39.5403 104.047L36.6141 94.7595C27.1416 97.744 18.7058 103.662 11.2769 112.206L18.6248 118.595ZM39.5792 104.034C47.8434 101.354 58.0712 99.0275 70.3138 97.0824L68.7859 87.4656C56.2213 89.4619 45.4673 91.888 36.5752 94.772L39.5792 104.034ZM70.3502 97.0765C75.0975 96.2853 80.3229 95.6028 86.0314 95.032L85.0625 85.3429C79.1789 85.9313 73.7396 86.6399 68.7494 87.4716L70.3502 97.0765ZM86.1328 95.0208C93.8231 94.0886 99.9165 93.2041 104.362 92.363L102.552 82.7954C98.419 83.5772 92.5724 84.4315 84.9611 85.3541L86.1328 95.0208ZM104.339 92.3673C109.141 91.4827 113.385 90.0474 116.916 87.9287L111.906 79.5789C109.642 80.9379 106.582 82.0528 102.575 82.7911L104.339 92.3673ZM117.036 87.8546C121.099 85.2539 123.627 81.3836 123.627 76.4508H113.89C113.89 77.5458 113.519 78.5442 111.787 79.653L117.036 87.8546ZM123.627 76.4508C123.627 72.6431 122.257 69.2396 119.631 66.4841C117.115 63.8441 113.646 62 109.668 60.6959L106.635 69.9487C109.729 70.963 111.563 72.1329 112.582 73.2023C113.492 74.1564 113.89 75.1579 113.89 76.4508H123.627ZM109.736 60.7188C102.012 58.0596 92.8661 56.8021 82.4171 56.8021V66.5395C92.1384 66.5395 100.149 67.7163 106.567 69.9258L109.736 60.7188ZM82.3584 56.8024C72.2649 56.924 63.3955 58.5665 55.9082 61.9229L59.8913 70.8083C65.8509 68.1368 73.3263 66.6494 82.4758 66.5391L82.3584 56.8024ZM55.9726 61.8946C52.0544 63.5834 48.7516 65.9011 46.4289 69.0247C44.0663 72.2019 42.9459 75.91 42.9459 79.9284H52.6833C52.6833 77.8029 53.2437 76.1787 54.2428 74.835C55.2819 73.4376 57.0216 72.0458 59.8269 70.8366L55.9726 61.8946ZM47.8146 75.0597H4.51795V84.7971H47.8146V75.0597ZM9.38665 79.9284C9.38665 71.7433 11.2268 65.2248 14.6203 60.0979C18.0073 54.9809 23.1876 50.8779 30.5069 47.9291L26.8682 38.8972C18.0744 42.44 11.17 47.6687 6.50045 54.7234C1.8374 61.7683 -0.350748 70.2616 -0.350748 79.9284H9.38665ZM30.5348 47.9178C45.9895 41.5803 63.2611 38.3706 82.4171 38.3706V28.6332C62.1599 28.6332 43.6117 32.031 26.8403 38.9085L30.5348 47.9178ZM82.4171 38.3706C102.977 38.3706 121.032 41.0977 136.654 46.4538L139.812 37.2427C122.976 31.4704 103.821 28.6332 82.4171 28.6332V38.3706ZM136.664 46.4572C144.072 48.9791 149.26 52.7425 152.635 57.555C156.019 62.3786 157.882 68.6826 157.882 76.7985H167.619C167.619 67.1784 165.396 58.7894 160.607 51.963C155.811 45.1253 148.739 40.2816 139.802 37.2393L136.664 46.4572ZM157.882 76.7985C157.882 84.8788 155.264 90.9206 150.267 95.4467L156.803 102.664C164.093 96.0618 167.619 87.2657 167.619 76.7985H157.882ZM150.305 95.4127C144.684 100.397 138.354 103.927 131.276 106.04L134.062 115.371C142.517 112.847 150.098 108.611 156.765 102.698L150.305 95.4127ZM131.257 106.046C123.835 108.295 115.46 110.223 106.115 111.818L107.754 121.417C117.42 119.766 126.201 117.753 134.081 115.365L131.257 106.046ZM106.037 111.832L100.473 112.875L102.267 122.446L107.832 121.403L106.037 111.832ZM101.37 112.792C100.632 112.792 99.6357 112.936 98.7929 113.068C97.8001 113.223 96.5031 113.45 94.9195 113.743L96.6926 123.318C98.2388 123.031 99.4341 122.823 100.296 122.688C100.728 122.621 101.049 122.576 101.272 122.55C101.547 122.517 101.531 122.529 101.37 122.529V112.792ZM95.1175 113.71C79.6045 115.927 66.6698 118.332 56.3584 120.939L58.7456 130.379C68.6044 127.886 81.1724 125.539 96.4945 123.35L95.1175 113.71ZM56.397 120.93C51.2231 122.193 46.8934 123.734 43.7476 125.709C40.6459 127.657 37.7294 130.688 37.7294 135.049H47.4668C47.4668 135.584 47.0426 135.138 48.9256 133.956C50.7643 132.801 53.9116 131.56 58.7069 130.389L56.397 120.93ZM42.5981 139.918H166.054V130.18H42.5981V139.918Z" fill="#FF5C17"/>
</g>
<defs>
<filter id="filter0_i_77_306" x="4.51758" y="33.502" width="162.233" height="133.194" filterUnits="userSpaceOnUse" color-interpolation-filters="sRGB">
<feFlood flood-opacity="0" result="BackgroundImageFix"/>
<feBlend mode="normal" in="SourceGraphic" in2="BackgroundImageFix" result="shape"/>
<feColorMatrix in="SourceAlpha" type="matrix" values="0 0 0 0 0 0 0 0 0 0 0 0 0 0 0 0 0 0 127 0" result="hardAlpha"/>
<feOffset dx="0.695528" dy="0.695528"/>
<feGaussianBlur stdDeviation="0.695528"/>
<feComposite in2="hardAlpha" operator="arithmetic" k2="-1" k3="1"/>
<feColorMatrix type="matrix" values="0 0 0 0 1 0 0 0 0 1 0 0 0 0 1 0 0 0 0.9 0"/>
<feBlend mode="normal" in2="shape" result="effect1_innerShadow_77_306"/>
</filter>
</defs>
</svg>
