<svg width="30" height="30" viewBox="0 0 30 30" fill="none" xmlns="http://www.w3.org/2000/svg">
<path d="M8.51411 26.2693C10.4229 27.3702 12.6376 28 14.9995 28C22.1792 28 28 22.1798 28 15C28 7.82031 22.1797 2 15 2C7.8203 2 2 7.82031 2 15C2 17.3619 2.62984 19.5766 3.73072 21.4854L3.73499 21.4928C3.84091 21.6765 3.89433 21.7691 3.91852 21.8566C3.94134 21.9392 3.94772 22.0134 3.94187 22.0989C3.93559 22.1907 3.90465 22.2859 3.84121 22.4762L2.73069 25.8078L2.72929 25.8121C2.49498 26.5151 2.37782 26.8665 2.46133 27.1007C2.53415 27.3049 2.69577 27.4661 2.89996 27.5389C3.13362 27.6222 3.48351 27.5056 4.18334 27.2723L4.19206 27.2691L7.52362 26.1585C7.71332 26.0953 7.80975 26.0632 7.90141 26.057C7.98686 26.0511 8.06056 26.0588 8.14312 26.0817C8.23088 26.1059 8.32354 26.1594 8.50814 26.2658L8.51411 26.2693Z" stroke="#FF5C17" stroke-width="2.5" stroke-linecap="round" stroke-linejoin="round"/>
</svg>
