<svg width="27" height="27" viewBox="0 0 27 27" fill="none" xmlns="http://www.w3.org/2000/svg">
<path d="M10.031 2.74614C9.60913 1.69153 8.58774 1 7.45193 1H3.63151C2.17817 1 1 2.17791 1 3.6313C1 15.985 11.0147 26 23.3681 26C24.8215 26 25.9994 24.8217 25.9994 23.3683L26 19.5472C26 18.4113 25.3087 17.3901 24.2541 16.9682L20.5925 15.5041C19.6452 15.1252 18.5666 15.2957 17.7828 15.9489L16.8378 16.7371C15.7342 17.6568 14.1103 17.5837 13.0944 16.5678L10.4334 13.9043C9.41754 12.8884 9.34247 11.2658 10.2622 10.1621L11.0502 9.21709C11.7034 8.43328 11.8754 7.35439 11.4965 6.40708L10.031 2.74614Z" stroke="#FF5C17" stroke-width="2" stroke-linecap="round" stroke-linejoin="round"/>
</svg>
