<svg width="29" height="29" viewBox="0 0 29 29" fill="none" xmlns="http://www.w3.org/2000/svg">
<path d="M11.031 3.74614C10.6091 2.69153 9.58774 2 8.45193 2H4.63151C3.17817 2 2 3.17791 2 4.6313C2 16.985 12.0147 27 24.3681 27C25.8215 27 26.9994 25.8217 26.9994 24.3683L27 20.5472C27 19.4113 26.3087 18.3901 25.2541 17.9682L21.5925 16.5041C20.6452 16.1252 19.5666 16.2957 18.7828 16.9489L17.8378 17.7371C16.7342 18.6568 15.1103 18.5837 14.0944 17.5678L11.4334 14.9043C10.4175 13.8884 10.3425 12.2658 11.2622 11.1621L12.0502 10.2171C12.7034 9.43328 12.8754 8.35439 12.4965 7.40708L11.031 3.74614Z" stroke="#FF5C17" stroke-width="2.5" stroke-linecap="round" stroke-linejoin="round"/>
</svg>
