<svg width="31" height="34" viewBox="0 0 31 34" fill="none" xmlns="http://www.w3.org/2000/svg">
<path d="M19.0455 13.6667V25.3333M12.2273 13.6667V25.3333M5.40909 7V26.6667C5.40909 28.5335 5.40909 29.4663 5.78066 30.1793C6.1075 30.8065 6.62865 31.3175 7.27011 31.637C7.99864 32 8.95283 32 10.8584 32H20.4144C22.3199 32 23.2727 32 24.0012 31.637C24.6427 31.3175 25.1656 30.8065 25.4924 30.1793C25.8636 29.467 25.8636 28.535 25.8636 26.6718V7M5.40909 7H8.81818M5.40909 7H2M8.81818 7H22.4545M8.81818 7C8.81818 5.44686 8.81818 4.67068 9.07768 4.05811C9.42369 3.24135 10.0869 2.59205 10.9222 2.25373C11.5487 2 12.3434 2 13.9318 2H17.3409C18.9293 2 19.7236 2 20.3501 2.25373C21.1854 2.59205 21.8489 3.24135 22.1949 4.05811C22.4544 4.67067 22.4545 5.44686 22.4545 7M22.4545 7H25.8636M25.8636 7H29.2727" stroke="#FF5C17" stroke-width="2.72727" stroke-linecap="round" stroke-linejoin="round"/>
</svg>
