<svg width="25" height="31" viewBox="0 0 25 31" fill="none" xmlns="http://www.w3.org/2000/svg">
<path d="M2 12.5328C2 19.9146 8.36675 26.019 11.1848 28.3595C11.5882 28.6944 11.7922 28.8639 12.0931 28.9498C12.3274 29.0167 12.6723 29.0167 12.9066 28.9498C13.208 28.8637 13.4107 28.6959 13.8155 28.3597C16.6336 26.0193 23 19.9153 23 12.5335C23 9.7399 21.8938 7.06042 19.9247 5.08508C17.9555 3.10974 15.285 2 12.5002 2C9.71539 2 7.04454 3.1099 5.0754 5.08525C3.10625 7.06059 2 9.73922 2 12.5328Z" stroke="#FF5C17" stroke-width="2.5" stroke-linecap="round" stroke-linejoin="round"/>
<path d="M9.50004 11.1287C9.50004 12.8093 10.8432 14.1716 12.5001 14.1716C14.1569 14.1716 15.5001 12.8093 15.5001 11.1287C15.5001 9.44816 14.1569 8.0858 12.5001 8.0858C10.8432 8.0858 9.50004 9.44816 9.50004 11.1287Z" stroke="#FF5C17" stroke-width="2.5" stroke-linecap="round" stroke-linejoin="round"/>
</svg>
