<svg width="30" height="24" viewBox="0 0 30 24" fill="none" xmlns="http://www.w3.org/2000/svg">
<path d="M3.44444 3.42857L12.2666 10.0175L12.2695 10.0199C13.2491 10.7304 13.7392 11.0859 14.276 11.2232C14.7504 11.3445 15.2492 11.3445 15.7236 11.2232C16.2609 11.0857 16.7524 10.7292 17.7337 10.0175C17.7337 10.0175 23.3923 5.72277 26.5556 3.42857M2 17.4289V6.57171C2 4.97156 2 4.17089 2.31487 3.55971C2.59184 3.0221 3.03346 2.58533 3.57704 2.31141C4.19501 2 5.00457 2 6.6225 2H23.3781C24.996 2 25.8038 2 26.4218 2.31141C26.9654 2.58533 27.4085 3.0221 27.6854 3.55971C28 4.17029 28 4.96999 28 6.56701V17.4337C28 19.0307 28 19.8293 27.6854 20.4398C27.4085 20.9774 26.9654 21.415 26.4218 21.6889C25.8044 22 24.997 22 23.3822 22H6.61776C5.00299 22 4.1944 22 3.57704 21.6889C3.03346 21.415 2.59184 20.9774 2.31487 20.4398C2 19.8287 2 19.029 2 17.4289Z" stroke="#FF5C17" stroke-width="2.5" stroke-linecap="round" stroke-linejoin="round"/>
</svg>
