<svg width="33" height="27" viewBox="0 0 33 27" fill="none" xmlns="http://www.w3.org/2000/svg">
<path fill-rule="evenodd" clip-rule="evenodd" d="M0.961302 0.00404192L5.40385 0L5.65714 0.113174C5.82599 0.18997 5.96269 0.291018 6.07928 0.428443C6.17577 0.537575 6.2803 0.699251 6.31246 0.788174C6.34462 0.877096 6.66626 1.73398 7.6794 4.4259L32.0792 4.46632L32.3004 4.57545C32.421 4.63204 32.5939 4.76138 32.6783 4.85838C32.7667 4.95135 32.8753 5.11302 32.9195 5.21407C32.9718 5.33533 32.9999 5.48892 32.9999 5.67889C33.0039 5.94162 32.8753 6.37814 31.2832 11.5801C30.3344 14.6722 29.5263 17.2549 29.4861 17.3196C29.4459 17.3843 29.3413 17.5096 29.2569 17.5904C29.1725 17.6713 29.0157 17.7804 28.7021 17.9259L20.7337 17.938C13.1632 17.9461 12.7612 17.9501 12.7813 18.0189C12.7934 18.0552 12.9341 18.4433 13.3964 19.6639L27.2146 19.7043L27.5362 19.7973C27.7131 19.8458 28.0227 19.9671 28.2197 20.06C28.4207 20.157 28.7182 20.347 28.883 20.4763C29.0479 20.6097 29.2851 20.8442 29.4097 20.9978C29.5383 21.1554 29.7032 21.3898 29.7796 21.5232C29.856 21.6566 29.9725 21.9193 30.0409 22.1093C30.1052 22.2993 30.1816 22.5903 30.2098 22.756C30.2379 22.9379 30.25 23.2451 30.2379 23.524C30.2258 23.8028 30.1856 24.1019 30.1414 24.2717C30.0972 24.4293 30.0168 24.6638 29.9605 24.7972C29.9082 24.9305 29.7836 25.165 29.6831 25.3226C29.5826 25.4802 29.3856 25.7308 29.2408 25.8844C29.1001 26.034 28.8308 26.2644 28.6418 26.3897C28.4528 26.519 28.1754 26.6686 28.0186 26.7292C27.8659 26.7898 27.5844 26.8747 27.3955 26.9232C27.114 26.9919 26.9693 27.004 26.5713 26.9879C26.2014 26.9757 26.0084 26.9475 25.7391 26.8666C25.5421 26.806 25.2486 26.6888 25.0797 26.6039C24.9109 26.5231 24.6294 26.3412 24.4566 26.1997C24.2837 26.0623 24.0304 25.8076 23.8937 25.6338C23.757 25.4641 23.568 25.1609 23.4716 24.9588C23.3751 24.7567 23.2544 24.4496 23.2102 24.2717C23.162 24.0898 23.1178 23.7503 23.1057 23.5037C23.0896 23.1844 23.1017 22.9621 23.1499 22.7156C23.1861 22.5256 23.2223 22.3316 23.2545 22.1901H15.9775L15.9976 22.279C16.0097 22.3316 16.0459 22.5175 16.082 22.6954C16.1343 22.9379 16.1424 23.14 16.1263 23.5037C16.1142 23.7705 16.074 24.0979 16.0378 24.2313C16.0016 24.3647 15.9253 24.591 15.869 24.7365C15.8087 24.882 15.688 25.1246 15.5996 25.2781C15.5071 25.4317 15.29 25.7066 15.1131 25.8925C14.9362 26.0744 14.6548 26.3088 14.49 26.418C14.3251 26.5231 14.0718 26.6605 13.9271 26.7171C13.7824 26.7777 13.509 26.8666 13.316 26.9151C13.0708 26.9717 12.8376 27 12.5521 27C12.2426 27 12.0456 26.9757 11.7762 26.903C11.5792 26.8504 11.3138 26.7656 11.1932 26.7171C11.0726 26.6686 10.8636 26.5635 10.7309 26.4826C10.5982 26.4018 10.3851 26.2482 10.2605 26.1431C10.1318 26.034 9.91475 25.8076 9.78207 25.6338C9.64538 25.4641 9.46446 25.1811 9.38003 25.0073C9.29158 24.8376 9.17499 24.5385 9.11468 24.3404C9.0182 24.0211 9.00613 23.9281 9.00613 23.3421C9.00613 22.756 9.0182 22.663 9.11468 22.3397C9.17499 22.1457 9.27952 21.8749 9.34787 21.7334C9.42024 21.596 9.54889 21.3737 9.63734 21.2403C9.72981 21.1069 9.93083 20.8725 10.0916 20.7148C10.2525 20.5572 10.4977 20.3591 10.6465 20.2702C10.7912 20.1813 10.9078 20.0883 10.9078 20.0681C10.9078 20.0479 9.42828 16.0909 4.33442 2.5262L2.60967 2.50599C1.07789 2.48578 0.864812 2.47769 0.732139 2.41302C0.64771 2.37665 0.494935 2.26347 0.390404 2.16647C0.277833 2.06946 0.1532 1.8997 0.0969148 1.7744C0.0205271 1.60464 0.00042507 1.48743 0.00042507 1.25299C-0.00359534 1.0226 0.0205271 0.901347 0.088874 0.747754C0.141139 0.634581 0.24969 0.476946 0.330098 0.388024C0.410506 0.303144 0.587404 0.181886 0.720078 0.117216L0.961302 0.00404192ZM8.67244 7.08548C8.70058 7.15823 9.02221 8.01108 9.38807 8.98518L10.0474 10.7515C14.4578 10.7515 15.7363 10.7475 15.7363 10.7434C15.7363 10.7353 15.672 9.89461 15.5956 8.87201C15.5192 7.8494 15.4549 7.0006 15.4549 6.98443C15.4549 6.96826 13.915 6.9521 12.0375 6.9521H8.62017L8.67244 7.08548ZM16.8178 8.68204C16.8861 9.54296 16.9464 10.3635 16.9585 10.5009L16.9826 10.7555C21.6945 10.7555 22.2493 10.7434 22.2493 10.703C22.2493 10.6747 22.3137 9.85015 22.3901 8.86392C22.4665 7.88174 22.5308 7.0491 22.5308 7.01677C22.5308 6.96422 22.177 6.95614 19.616 6.95614C16.7253 6.95614 16.7012 6.95614 16.7012 7.03698C16.7012 7.08144 16.7535 7.82111 16.8178 8.68204ZM23.757 7.20674C23.7449 7.3482 23.6806 8.16063 23.6123 9.01752C23.5479 9.8744 23.4957 10.6141 23.4957 10.6626V10.7555H28.9634C29.0197 10.5494 29.2569 9.77335 29.5263 8.89626C29.7916 8.01916 30.0369 7.2229 30.069 7.1259L30.1293 6.95614H23.7811L23.757 7.20674ZM11.1973 13.7951L11.8164 15.4442H16.1182C16.074 15.1127 16.0097 14.3488 15.9494 13.5323L15.8368 12.0449C11.0807 12.0449 10.5419 12.057 10.558 12.0975C10.5661 12.1257 10.8555 12.8897 11.1973 13.7951ZM17.1032 12.1783C17.1032 12.251 17.1475 12.918 17.2037 13.6617C17.256 14.4094 17.3123 15.1127 17.3244 15.2299L17.3445 15.4401C21.4051 15.4401 21.8875 15.432 21.8875 15.3916C21.8875 15.3633 21.9398 14.6479 22.0081 13.8031C22.0725 12.9584 22.1287 12.2187 22.1287 12.1581V12.0449H17.1032V12.1783ZM23.2545 13.7263C23.1861 14.5711 23.1338 15.3027 23.1338 15.3512V15.4442L27.5322 15.424C28.3282 12.825 28.5574 12.0651 28.5614 12.057C28.5614 12.053 27.3955 12.049 25.9682 12.049C23.5238 12.049 23.3751 12.053 23.3751 12.1177C23.3751 12.1581 23.3188 12.8816 23.2545 13.7263ZM11.9973 22.3639C11.8526 22.4528 11.7279 22.566 11.6435 22.6994C11.5712 22.8085 11.4907 22.9743 11.4666 23.0632C11.4425 23.1521 11.4345 23.3259 11.4425 23.4472C11.4546 23.5684 11.5108 23.7584 11.5671 23.8716C11.6194 23.9807 11.7199 24.1222 11.7802 24.1787C11.8445 24.2394 11.9772 24.3283 12.0777 24.3808C12.2184 24.4536 12.323 24.4738 12.5602 24.4778C12.7974 24.4778 12.8979 24.4576 13.0426 24.3808C13.1431 24.3283 13.2758 24.2394 13.3361 24.1787C13.4004 24.1222 13.4969 23.9807 13.5572 23.8716C13.6457 23.7018 13.6618 23.6169 13.6658 23.3461C13.6658 23.0591 13.6497 22.9945 13.5452 22.8045C13.4768 22.6832 13.3683 22.5418 13.3039 22.4852C13.2356 22.4286 13.111 22.3478 13.0225 22.3033C12.9341 22.2588 12.7612 22.2184 12.6406 22.2103C12.52 22.2063 12.3752 22.2063 12.3189 22.2184C12.2627 22.2265 12.1179 22.2952 11.9973 22.3639ZM26.1089 22.3639C25.9642 22.4528 25.8396 22.566 25.7551 22.6994C25.6828 22.8085 25.6024 22.9743 25.5782 23.0632C25.5541 23.1521 25.5461 23.3259 25.5541 23.4472C25.5662 23.5846 25.6144 23.7503 25.6908 23.8877C25.7551 24.0049 25.8597 24.1504 25.928 24.203C25.9923 24.2596 26.121 24.3404 26.2094 24.3849C26.2979 24.4293 26.4587 24.4738 26.5713 24.4859C26.6999 24.5021 26.8567 24.4819 27.0135 24.4374C27.2025 24.3808 27.299 24.3202 27.4598 24.1585C27.6045 24.013 27.6849 23.8877 27.7332 23.7301C27.7814 23.5805 27.8015 23.4269 27.7895 23.2653C27.7814 23.1198 27.7372 22.95 27.6809 22.8409C27.6287 22.7398 27.5402 22.6064 27.4799 22.5418C27.4236 22.4811 27.2829 22.3801 27.1743 22.3275C27.0457 22.2629 26.8889 22.2184 26.7522 22.2103C26.6316 22.2063 26.4869 22.2063 26.4306 22.2184C26.3743 22.2265 26.2296 22.2952 26.1089 22.3639Z" fill="#FF5C17"/>
</svg>
