<svg width="25" height="22" viewBox="0 0 25 22" fill="none" xmlns="http://www.w3.org/2000/svg">
<path d="M24 3.5H21.4444M24 11H17.6111M24 18.5H17.6111M6.11111 21V12.9515C6.11111 12.6915 6.11111 12.5615 6.08502 12.4371C6.06188 12.3269 6.0236 12.2201 5.97122 12.1197C5.91217 12.0067 5.82916 11.9052 5.66311 11.7021L1.448 6.54783C1.28195 6.34479 1.19894 6.24326 1.13989 6.13021C1.08751 6.02991 1.04923 5.92315 1.02609 5.81282C1 5.68847 1 5.55846 1 5.29844V3C1 2.29994 1 1.9499 1.13926 1.68251C1.26178 1.44731 1.45725 1.25609 1.69768 1.13624C1.97101 1 2.32882 1 3.04444 1H14.2889C15.0046 1 15.3624 1 15.6357 1.13624C15.8761 1.25609 16.0715 1.44731 16.1941 1.68251C16.3333 1.9499 16.3333 2.29994 16.3333 3V5.29844C16.3333 5.55846 16.3333 5.68847 16.3073 5.81282C16.2841 5.92315 16.2458 6.02991 16.1934 6.13021C16.1344 6.24326 16.0513 6.34479 15.8853 6.54783L11.6702 11.7021C11.5042 11.9052 11.4212 12.0067 11.3621 12.1197C11.3098 12.2201 11.2714 12.3269 11.2483 12.4371C11.2222 12.5615 11.2222 12.6915 11.2222 12.9515V17.25L6.11111 21Z" stroke="#313131" stroke-opacity="0.7" stroke-width="2" stroke-linecap="round" stroke-linejoin="round"/>
</svg>
