<svg width="52" height="42" viewBox="0 0 52 42" fill="none" xmlns="http://www.w3.org/2000/svg">
<path d="M2 40H6.8M6.8 40H26M6.8 40V9.60046C6.8 6.94021 6.8 5.6091 7.32317 4.59302C7.78336 3.69925 8.51713 2.97312 9.42031 2.51772C10.4471 2 11.7922 2 14.4805 2H18.3205C21.0087 2 22.3521 2 23.3789 2.51772C24.2821 2.97312 25.0172 3.69925 25.4773 4.59302C26 5.6081 26 6.93761 26 9.59266V16.8345M26 40H45.2M26 40V16.8345M45.2 40H50M45.2 40V26.6244C45.2 25.3771 45.2 24.7524 45.0488 24.1705C44.9148 23.6548 44.6934 23.1656 44.3952 22.7223C44.0588 22.2221 43.5908 21.8047 42.6528 20.9708L37.1328 16.0633C35.3184 14.4502 34.4108 13.644 33.3852 13.3381C32.4817 13.0686 31.5177 13.0686 30.6142 13.3381C29.5887 13.644 28.6814 14.4506 26.8674 16.0633L26 16.8345" stroke="#FF5C17" stroke-width="2.8" stroke-linecap="round" stroke-linejoin="round"/>
</svg>
