<svg width="224" height="75" viewBox="0 0 224 75" fill="none" xmlns="http://www.w3.org/2000/svg">
<rect width="14.8768" height="14.4953" fill="white"/>
<rect y="36.6198" width="14.8768" height="14.4953" fill="white"/>
<rect x="18.3096" y="25.1761" width="14.8768" height="14.4953" fill="white"/>
<rect x="35.8574" y="13.351" width="14.8768" height="14.4953" fill="white"/>
<rect x="35.8574" y="36.6198" width="14.8768" height="14.4953" fill="white"/>
<rect x="35.8574" y="53.7854" width="14.8768" height="14.4953" fill="white"/>
<rect x="17.5469" y="60.2701" width="14.8768" height="14.4953" fill="white"/>
<rect x="17.9287" y="42.7231" width="14.8768" height="14.4953" fill="white"/>
<rect y="60.2701" width="14.8768" height="14.4953" fill="white"/>
<rect x="78.6553" y="57.4786" width="3.45736" height="144.345" transform="rotate(-90 78.6553 57.4786)" fill="#FF5C17"/>
<path d="M78.757 45.905V32.2376H81.847L89.5483 41.4839H88.1459V32.2376H91.8302V45.905H88.7401L81.0151 36.6587H82.4413V45.905H78.757ZM93.4489 45.905L99.5814 32.2376H103.289L109.446 45.905H105.738L100.817 34.0441H102.077L97.0856 45.905H93.4489ZM96.8004 43.1953L97.7749 40.4856H104.525L105.5 43.1953H96.8004ZM121.788 41.7454C121.788 42.6011 121.543 43.3617 121.052 44.0272C120.576 44.6928 119.879 45.2157 118.96 45.596C118.057 45.9763 116.94 46.1665 115.608 46.1665C114.515 46.1665 113.437 46.0318 112.376 45.7624C111.33 45.493 110.482 45.1365 109.832 44.6928L111.14 41.9118C111.758 42.3238 112.479 42.6486 113.303 42.8863C114.127 43.124 114.967 43.2429 115.822 43.2429C116.662 43.2429 117.249 43.124 117.581 42.8863C117.914 42.6486 118.08 42.3713 118.08 42.0544C118.08 41.7375 117.93 41.4839 117.629 41.2938C117.344 41.1036 116.963 40.9531 116.488 40.8422C116.028 40.7154 115.513 40.5965 114.943 40.4856C114.388 40.3747 113.826 40.2321 113.255 40.0578C112.701 39.8835 112.186 39.6537 111.71 39.3685C111.251 39.0674 110.87 38.6791 110.569 38.2038C110.284 37.7125 110.141 37.1024 110.141 36.3735C110.141 35.5178 110.387 34.7651 110.878 34.1154C111.385 33.4499 112.098 32.927 113.018 32.5466C113.937 32.1663 115.03 31.9762 116.298 31.9762C117.153 31.9762 118.025 32.0713 118.912 32.2614C119.8 32.4516 120.576 32.7526 121.242 33.1646L120.03 35.9457C119.412 35.5654 118.77 35.296 118.104 35.1375C117.455 34.979 116.805 34.8998 116.155 34.8998C115.363 34.8998 114.784 35.0187 114.42 35.2564C114.056 35.494 113.873 35.7951 113.873 36.1596C113.873 36.4765 114.016 36.7301 114.301 36.9202C114.586 37.1104 114.959 37.2688 115.418 37.3956C115.894 37.5065 116.417 37.6174 116.987 37.7284C117.558 37.8393 118.12 37.9819 118.675 38.1562C119.229 38.3147 119.744 38.5365 120.22 38.8218C120.695 39.107 121.075 39.4873 121.361 39.9627C121.646 40.4222 121.788 41.0165 121.788 41.7454ZM124.16 45.905V32.2376H127.916V37.4669H133.478V32.2376H137.233V45.905H133.478V40.4856H127.916V45.905H124.16ZM138.852 45.905L144.985 32.2376H148.693L154.849 45.905H151.141L146.221 34.0441H147.48L142.489 45.905H138.852ZM142.204 43.1953L143.178 40.4856H149.929L150.903 43.1953H142.204ZM165.77 45.905V35.1613H161.468V32.2376H173.828V35.1613H169.526V45.905H165.77ZM179.089 37.6095H185.697V40.343H179.089V37.6095ZM179.469 43.0289H186.766V45.905H175.761V32.2376H186.505V35.1137H179.469V43.0289ZM189.503 45.905V32.2376H192.64L198.297 41.4364H196.776L202.314 32.2376H205.476L205.523 45.905H202.005L201.982 37.5857H202.505L198.321 44.4551H196.634L192.308 37.5857H192.997V45.905H189.503ZM207.119 45.905L213.252 32.2376H216.96L223.116 45.905H219.408L214.488 34.0441H215.748L210.756 45.905H207.119ZM210.471 43.1953L211.445 40.4856H218.196L219.17 43.1953H210.471Z" fill="white"/>
</svg>
